<?xml version="1.0" standalone="no"?>
<!DOCTYPE svg PUBLIC "-//W3C//DTD SVG 1.1//EN" "http://www.w3.org/Graphics/SVG/1.1/DTD/svg11.dtd" >
<svg xmlns="http://www.w3.org/2000/svg" xmlns:xlink="http://www.w3.org/1999/xlink" version="1.1">
<metadata></metadata>
<defs>
<font id="noticia_textbold" horiz-adv-x="4672" >
<font-face units-per-em="8192" ascent="6553" descent="-1639" />
<missing-glyph horiz-adv-x="2200" />
<glyph horiz-adv-x="0" />
<glyph unicode="&#xd;" horiz-adv-x="0" />
<glyph unicode=" "  horiz-adv-x="2200" />
<glyph unicode="&#x09;" horiz-adv-x="2200" />
<glyph unicode="&#xa0;" horiz-adv-x="2200" />
<glyph unicode="!" horiz-adv-x="2568" d="M680 396q0 164 38 314t104 264t154 180t188 66q172 0 322 -40t260 -106t174 -156t64 -190q0 -164 -38 -310t-104 -260t-156 -180t-190 -66q-172 0 -320 38t-258 104t-174 154t-64 188zM700 6160l1228 88l80 -88l-292 -4520h-724z" />
<glyph unicode="&#x22;" horiz-adv-x="2656" d="M320 4548v1612h864v-168l-252 -1444h-612zM1432 4548v1612h864v-168l-252 -1444h-612z" />
<glyph unicode="#" horiz-adv-x="5548" d="M360 1144v708h884l244 1704h-864v708h964l164 1148h780v-80l-152 -1068h1144l164 1148h780v-80l-152 -1068h752v-708h-852l-244 -1704h832v-708h-932l-160 -1144h-780v80l148 1064h-1144l-160 -1144h-780v80l148 1064h-784zM2036 1852h1144l244 1704h-1144z" />
<glyph unicode="$" horiz-adv-x="4520" d="M316 4136q0 648 564 1004q428 272 1100 336v772h660v-752q304 -12 596 -52q392 -56 696 -152l84 -1160l-620 -88l-332 788q-156 36 -336 52l-88 8v-1632l16 -8q924 -520 1274 -914t350 -958q0 -700 -584 -1084q-420 -276 -1056 -352v-848h-660v816q-400 8 -772 68 q-428 68 -728 184l-84 1116l668 100l336 -788q164 -40 360 -64q108 -12 220 -16v1788q-36 20 -72 44q-1020 588 -1304 948t-288 844zM1516 4316q0 -252 196 -440q84 -80 268 -208v1208q-200 -28 -388 -84q-32 -104 -54 -232t-22 -244zM2640 548q176 28 320 72q48 96 84 240 t36 284q0 320 -252 560q-76 72 -188 156v-1312z" />
<glyph unicode="%" horiz-adv-x="6772" d="M360 4236q0 260 100 490t270 402t400 272t494 100q260 0 490 -100t402 -272t272 -402t100 -490q0 -264 -100 -494t-272 -400t-402 -270t-490 -100q-264 0 -494 100t-400 270t-270 400t-100 494zM924 0v80l3864 5332h860v-80l-3864 -5332h-860zM1116 4236q0 -332 136 -472 t372 -140q100 0 192 34t162 106t110 188t40 284t-40 284t-110 188t-162 106t-192 34q-236 0 -372 -140t-136 -472zM3684 1176q0 260 100 490t270 402t400 272t494 100q260 0 490 -100t402 -272t272 -402t100 -490q0 -264 -100 -494t-272 -400t-402 -270t-490 -100 q-264 0 -494 100t-400 270t-270 400t-100 494zM4440 1176q0 -332 136 -472t372 -140q100 0 192 34t162 106t110 188t40 284t-40 284t-110 188t-162 106t-192 34q-236 0 -372 -140t-136 -472z" />
<glyph unicode="&#x26;" horiz-adv-x="6324" d="M96 1096v88q0 276 108 518t286 444t408 366t470 292q-176 200 -292 374t-186 324t-100 284t-30 254v76q0 276 132 526t384 442t620 304t844 112q388 0 680 -76t488 -214t294 -330t98 -428v-88q0 -240 -92 -442t-282 -396t-486 -390t-704 -420q308 -340 618 -678t614 -630 q80 160 120 342t40 394v24l-652 136l80 472l1692 88v-748q0 -364 -144 -694t-420 -610q212 -144 408 -224t380 -80q168 0 314 20t262 48q132 28 244 68v-464q-108 -76 -252 -136q-124 -52 -302 -92t-406 -40q-328 0 -660 104t-672 296q-364 -192 -814 -296t-974 -104 q-500 0 -892 70t-664 214t-416 368t-144 532zM1296 1308q0 -396 262 -598t734 -202q608 0 1052 244q-388 300 -766 678t-750 814q-120 -68 -220 -166t-168 -214t-106 -244t-38 -260v-52zM1960 4224q0 -312 84 -546t240 -434q412 264 614 504t202 512v52q0 280 -160 436 t-408 156q-96 0 -180 -20t-144 -40q-72 -28 -128 -60q-36 -64 -60 -140q-24 -68 -42 -162t-18 -214v-44z" />
<glyph unicode="'" horiz-adv-x="1544" d="M280 4548v1612h864v-168l-252 -1444h-612z" />
<glyph unicode="(" horiz-adv-x="2972" d="M440 2172q0 484 80 926t212 830t302 722t346 610q412 644 940 1144l452 -240q-328 -480 -580 -1096q-108 -264 -214 -580t-186 -682t-130 -776t-50 -858q0 -452 50 -862t130 -774t186 -680t214 -580q252 -616 580 -1100l-452 -240q-528 496 -940 1144q-176 276 -346 610 t-302 724t-212 830t-80 928z" />
<glyph unicode=")" horiz-adv-x="2972" d="M200 -1824q324 484 580 1100q108 264 212 580t186 680t132 774t50 862q0 448 -50 858t-132 776t-186 682t-212 580q-256 616 -580 1096l452 240q524 -500 940 -1144q176 -276 344 -610t300 -722t214 -830t82 -926q0 -488 -82 -928t-214 -830t-300 -724t-344 -610 q-416 -648 -940 -1144z" />
<glyph unicode="*" horiz-adv-x="3580" d="M160 5184l420 732l192 -112l748 -612l-156 948v228h852v-228l-156 -944l748 608l192 112l416 -732l-188 -116l-896 -340l900 -340l188 -116l-420 -732l-192 112l-748 612l156 -948v-228h-852v228l156 944l-748 -608l-192 -112l-416 732l168 104l916 348l-900 344z" />
<glyph unicode="+" horiz-adv-x="4412" d="M640 1960v828h1152v1232h828v-1232h1152v-828h-1152v-1232h-828v1232h-1152z" />
<glyph unicode="," horiz-adv-x="2384" d="M400 392q0 168 40 318t106 264t154 180t188 66q92 0 192 -14t196 -44t180 -80t152 -118q40 -44 80 -106t70 -152t48 -214t18 -292q0 -240 -36 -466t-146 -458t-312 -482t-534 -538l-328 384q204 172 344 322t224 284t120 248t36 214q0 96 -74 148t-190 80 q-236 64 -382 184t-146 272z" />
<glyph unicode="-" horiz-adv-x="4212" d="M640 1960v828h2932v-828h-2932z" />
<glyph unicode="." horiz-adv-x="2264" d="M400 396q0 164 38 314t104 264t154 180t188 66q172 0 322 -38t260 -106t174 -158t64 -190q0 -164 -38 -310t-104 -260t-156 -180t-190 -66q-172 0 -320 38t-258 104t-174 154t-64 188z" />
<glyph unicode="/" horiz-adv-x="3532" d="M280 -1100l2272 7260h860v-80l-2272 -7260h-860v80z" />
<glyph unicode="0" horiz-adv-x="4944" d="M336 2068v420q0 1460 564 2236t1612 776q1096 0 1596 -528t500 -1632v-416q0 -1532 -544 -2272t-1700 -740q-1012 0 -1520 530t-508 1626zM1552 2288q0 -908 216 -1344t696 -436q496 0 712 488t216 1572v560q0 880 -204 1328t-716 448q-484 0 -702 -478t-218 -1578v-560z " />
<glyph unicode="1" horiz-adv-x="3304" d="M192 5036l1380 376h804v-4804l768 -136l-80 -472h-2580l-80 472l772 136v4016h-944z" />
<glyph unicode="2" horiz-adv-x="4320" d="M224 0v740q556 548 1026 1016t814 882t538 788t194 734q0 364 -190 554t-558 190q-236 0 -442 -40t-362 -100l-240 -852l-636 44v1124q432 200 898 310t906 110q860 0 1342 -354t482 -998q0 -368 -204 -754t-544 -790t-776 -826t-900 -858l16 -40h1508l328 772l616 -92 l-92 -1560h-3724z" />
<glyph unicode="3" horiz-adv-x="4052" d="M208 288v1112l624 48l220 -808q128 -48 340 -90t428 -42q380 0 596 270t216 774q0 496 -248 766t-644 270h-492v596h452q372 0 556 238t184 686q0 392 -176 594t-528 202q-140 0 -288 -22t-288 -66l-224 -812l-620 48v1152q324 124 744 210t820 86q840 0 1300 -338 t460 -958q0 -412 -218 -744t-674 -528q476 -132 778 -486t302 -826q0 -816 -568 -1262t-1500 -446q-388 0 -814 110t-738 266z" />
<glyph unicode="4" horiz-adv-x="4212" d="M8 1776l2352 3636h1176l-2308 -3488l20 -40h1084v1100h1200v-1100h568l96 -480l-664 -136v-660l648 -136l-80 -472h-2500l-80 472l812 136v680h-2204z" />
<glyph unicode="5" horiz-adv-x="4312" d="M320 264v1108l660 32l244 -776q152 -52 356 -86t420 -34q416 0 660 292t244 832q0 500 -260 764t-768 264q-272 0 -548 -68t-460 -156l-452 388l148 2588h3252v-880h-2576l-80 -1448q200 88 470 146t590 58q872 0 1378 -408t506 -1156q-4 -828 -614 -1320t-1514 -492 q-400 0 -844 98t-812 254z" />
<glyph unicode="6" horiz-adv-x="4444" d="M296 2000v288q0 1408 832 2310t2000 902q172 0 378 -22t390 -66v-544q-180 16 -348 26t-332 10q-712 0 -1206 -588t-494 -1432l40 -16q244 172 502 246t594 74q700 0 1170 -416t470 -1064v-116q0 -768 -542 -1224t-1450 -456q-984 0 -1494 536t-510 1552zM1516 2084 q0 -756 216 -1166t636 -410q344 0 534 258t190 722v64q0 476 -236 758t-620 282q-164 0 -352 -52t-368 -152v-304z" />
<glyph unicode="7" horiz-adv-x="3804" d="M184 3752v1660h3692v-468l-1960 -4944h-1156l1992 4492l-24 40h-1672l-212 -812z" />
<glyph unicode="8" horiz-adv-x="4320" d="M168 1168q0 480 314 852t846 576q-504 252 -730 564t-226 784q0 680 516 1118t1400 438q792 0 1234 -304t442 -856q0 -372 -274 -704t-798 -564q608 -240 942 -614t334 -922q0 -728 -568 -1176t-1524 -448q-920 0 -1414 328t-494 928zM1368 1384q0 -420 204 -648 t584 -228q388 0 600 222t212 610q0 344 -224 554t-784 430l-212 84q-164 -168 -272 -426t-108 -598zM1568 4172q0 -352 204 -560t680 -376q152 168 232 418t80 566q0 332 -156 508t-408 176q-280 0 -456 -204t-176 -528z" />
<glyph unicode="9" horiz-adv-x="4352" d="M168 3608v116q0 816 520 1296t1440 480q968 0 1464 -532t496 -1592v-312q0 -1504 -726 -2328t-2042 -824q-176 0 -412 24t-448 68v544q128 -16 310 -28t358 -12q788 0 1272 544t484 1396l-40 16q-200 -156 -478 -244t-634 -88q-656 0 -1110 408t-454 1068zM1368 3764 q0 -464 220 -750t560 -286q172 0 370 60t366 156v248q0 832 -210 1272t-606 440q-356 0 -528 -280t-172 -796v-64z" />
<glyph unicode=":" horiz-adv-x="2264" d="M400 396q0 164 38 314t104 264t154 180t188 66q172 0 322 -38t260 -106t174 -158t64 -190q0 -164 -38 -310t-104 -260t-156 -180t-190 -66q-172 0 -320 38t-258 104t-174 154t-64 188zM400 3240q0 164 38 314t104 264t154 180t188 66q172 0 322 -38t260 -106t174 -158 t64 -190q0 -164 -38 -310t-104 -260t-156 -180t-190 -66q-172 0 -320 38t-258 104t-174 154t-64 188z" />
<glyph unicode=";" horiz-adv-x="2384" d="M400 392q0 168 40 318t106 264t154 180t188 66q92 0 192 -14t196 -44t182 -78t150 -120q40 -44 80 -106t70 -152t48 -214t18 -292q0 -240 -36 -466t-146 -458t-312 -482t-534 -538l-328 384q204 172 344 322t224 284t120 248t36 214q0 96 -74 146t-190 82 q-236 60 -382 182t-146 274zM404 3240q0 164 38 314t104 264t154 180t188 66q172 0 322 -38t260 -106t174 -158t64 -190q0 -164 -38 -310t-104 -260t-156 -180t-190 -66q-172 0 -320 38t-258 104t-174 154t-64 188z" />
<glyph unicode="&#x3c;" d="M560 2020v784l3352 1496h120v-836l-2316 -1020v-64l2316 -1016v-840h-120z" />
<glyph unicode="=" horiz-adv-x="4648" d="M640 1108v868h3368v-868h-3368zM640 2960v868h3368v-868h-3368z" />
<glyph unicode="&#x3e;" d="M640 524v840l2316 1016v64l-2316 1020v836h120l3352 -1496v-784l-3352 -1496h-120z" />
<glyph unicode="?" horiz-adv-x="4156" d="M480 4728v1188q216 92 484 164q228 64 544 116t700 52q412 0 744 -74t564 -216t356 -348t124 -466q0 -248 -56 -444t-184 -388t-336 -402t-512 -486l-644 -584q-160 -144 -218 -258t-58 -242q0 -144 74 -210t194 -66q92 0 184 18t172 42q92 28 180 64v-484 q-108 -56 -248 -100q-120 -40 -292 -70t-388 -30q-232 0 -422 48t-326 148t-212 248t-76 352q0 164 46 310t142 292t244 306t352 348l728 672q144 136 240 244t154 210t80 206t22 224q0 116 -46 220t-138 184t-234 126t-338 46q-180 0 -310 -20t-222 -44q-104 -28 -180 -64 l-280 -900zM1156 396q0 164 38 314t104 264t154 180t188 66q172 0 322 -40t260 -106t174 -156t64 -190q0 -164 -38 -310t-104 -260t-156 -180t-190 -66q-172 0 -320 38t-258 104t-174 154t-64 188z" />
<glyph unicode="@" horiz-adv-x="8120" d="M440 1288q0 1116 524 2086t1548 1548t2292 578q1400 0 2198 -612t798 -1696q0 -864 -332 -1484t-842 -938t-1050 -362l-784 -56l-324 312l92 680q-324 -544 -644 -768t-740 -224q-536 0 -760 328t-132 1060l48 372q136 980 714 1560t1442 580q364 0 810 -94t786 -218 l-432 -3104q512 56 750 620t238 1544q0 960 -516 1450t-1512 490q-892 0 -1596 -480t-1060 -1286t-356 -1738q0 -1052 636 -1584t1840 -532q524 0 1062 136t886 308v-424q-460 -260 -1064 -420t-1240 -160q-1032 0 -1760 268t-1126 840t-394 1420zM3418 1148 q26 -284 242 -284q112 0 246 114t270 286t262 372t222 376l240 1772q-108 24 -226 38t-222 14q-144 0 -274 -24t-218 -56q-112 -196 -238 -576t-210 -944l-40 -276q-80 -528 -54 -812z" />
<glyph unicode="A" horiz-adv-x="5064" d="M-104 472l400 112l1732 4828h1052l1692 -4828l396 -112l-80 -472h-1976l-80 472l528 112l-328 960h-1812l-336 -960l528 -112l-80 -472h-1556zM1624 2140h1408l-664 1952h-64z" />
<glyph unicode="B" horiz-adv-x="4936" d="M280 472l572 136v4196l-572 136l80 472h2276q848 0 1326 -322t478 -926q0 -412 -256 -750t-688 -534l8 -64q540 -92 854 -408t314 -796q0 -724 -518 -1168t-1366 -444h-2428zM2052 596h348q240 0 482 20t470 80q52 164 86 400t34 472q0 452 -272 698t-732 246h-416v-1916 zM2052 3108h324q176 0 366 28t362 80q56 148 96 366t40 430q0 436 -218 620t-710 184h-260v-1708z" />
<glyph unicode="C" horiz-adv-x="4744" d="M280 2060v356q0 1516 668 2300t1992 784q364 0 746 -60t706 -176l84 -1160l-620 -88l-340 796q-128 44 -314 68t-370 24q-300 0 -602 -88t-514 -224q-100 -368 -168 -856t-68 -1004v-532q0 -832 394 -1262t1170 -430q340 0 722 112t722 304v-504q-356 -232 -826 -370 t-958 -138q-1196 0 -1810 548t-614 1600z" />
<glyph unicode="D" horiz-adv-x="5712" d="M280 472l572 136v4196l-572 136l80 472h2472q1268 0 1914 -604t646 -1748v-312q0 -1268 -682 -2008t-1838 -740h-2512zM2052 596h644q236 0 492 32t460 84q208 288 376 776t168 1000v376q0 992 -400 1472t-1228 480h-512v-4220z" />
<glyph unicode="E" horiz-adv-x="4812" d="M280 472l572 136v4196l-572 136l80 472h3948l96 -1280l-532 -88l-332 772h-1488v-1688h1148l136 448l476 -80v-1336l-476 -80l-136 452h-1148v-1936h1604l332 772l536 -92l-96 -1276h-4068z" />
<glyph unicode="F" horiz-adv-x="4332" d="M272 472l572 136v4196l-572 136l80 472h3708l96 -1280l-492 -88l-332 772h-1288v-1688h1000l136 448l472 -80v-1336l-472 -80l-136 452h-1000v-1924l808 -136l-80 -472h-2420z" />
<glyph unicode="G" horiz-adv-x="5320" d="M296 2020v356q0 1520 698 2322t1990 802q412 0 820 -58t752 -170l84 -1160l-620 -88l-336 788q-184 48 -390 70t-402 22q-304 0 -602 -84t-558 -228q-104 -380 -170 -862t-66 -998v-532q0 -812 406 -1252t1046 -440q112 0 232 12t236 36v1420l-572 136l80 472h2180 l80 -472l-568 -136v-1556q-388 -236 -864 -370t-1052 -138q-1160 0 -1782 536t-622 1572z" />
<glyph unicode="H" horiz-adv-x="6164" d="M264 472l572 136v4196l-572 136l80 472h2180l80 -472l-568 -136v-1652h2096v1652l-568 136l80 472h2184l80 -472l-576 -136v-4196l576 -136l-80 -472h-2184l-80 472l568 136v1948h-2096v-1948l568 -136l-80 -472h-2180z" />
<glyph unicode="I" horiz-adv-x="2868" d="M272 472l572 136v4196l-572 136l80 472h2180l80 -472l-568 -136v-4196l568 -136l-80 -472h-2180z" />
<glyph unicode="J" horiz-adv-x="3588" d="M88 1244l612 88l336 -784q144 -44 308 -44q96 0 188 16t140 36q32 116 58 370t26 550v3328l-772 136l80 472h2380l80 -472l-568 -136v-3460q0 -700 -406 -1066t-1242 -366q-292 0 -600 62t-536 150z" />
<glyph unicode="K" horiz-adv-x="5576" d="M256 472l572 136v4196l-572 136l80 472h2180l80 -472l-568 -136v-1868l56 -24l2012 1944l-436 80l80 476h1792l80 -472l-564 -144l-1588 -1512l1768 -2696l468 -116l-80 -472h-1376l-1616 2488l-596 -568v-1312l568 -136l-80 -472h-2180z" />
<glyph unicode="L" horiz-adv-x="4264" d="M272 472l572 136v4196l-572 136l80 472h2180l80 -472l-568 -136v-4208h1064l332 772l616 -88l-100 -1280h-3604z" />
<glyph unicode="M" horiz-adv-x="8044" d="M256 472l572 136v4196l-572 136l80 472h2176l1484 -3924h64l1428 3924h2220l80 -472l-568 -136v-4196l568 -136l-80 -472h-2180l-80 472l572 136v3932h-64l-1696 -4540h-820l-1748 4540h-64v-3932l568 -136l-80 -472h-1780z" />
<glyph unicode="N" horiz-adv-x="6316" d="M272 472l572 136v4196l-572 136l80 472h2080l2368 -4404h64v3796l-576 136l80 472h1788l80 -472l-568 -136v-4804h-1596l-2364 4400h-64v-3792l648 -136l-80 -472h-1860z" />
<glyph unicode="O" horiz-adv-x="5628" d="M344 2100v316q0 1576 664 2330t1928 754q1208 0 1830 -548t622 -1644v-312q0 -1540 -652 -2312t-1956 -772q-1212 0 -1824 548t-612 1640zM1544 2280q0 -836 390 -1304t1014 -468q320 0 598 88t410 188q84 300 158 814t74 1002v532q0 868 -354 1320t-1046 452 q-300 0 -570 -80t-438 -192q-72 -256 -154 -772t-82 -1048v-532z" />
<glyph unicode="P" horiz-adv-x="4664" d="M280 472l572 136v4196l-572 136l80 472h2300q984 0 1478 -360t494 -1064q0 -756 -530 -1190t-1358 -434h-692v-1756l848 -136l-80 -472h-2460zM2052 2960h440q232 0 458 34t354 78q52 156 82 376t30 424q0 480 -266 712t-778 232h-320v-1856z" />
<glyph unicode="Q" horiz-adv-x="5752" d="M296 2100v316q0 1544 650 2314t1942 770q1208 0 1830 -548t622 -1644v-312q0 -928 -234 -1576t-718 -1024q188 -356 342 -466t354 -110q96 0 238 30t238 70v-480q-156 -92 -406 -154t-502 -62q-424 0 -716 172t-484 560l-12 24q-332 -68 -708 -68q-1208 0 -1822 550 t-614 1638zM1496 2280q0 -100 4 -192t16 -176q112 220 352 344t532 124q512 0 890 -258t662 -830l48 -100q48 256 94 634t46 774v532q0 888 -358 1330t-1042 442q-288 0 -560 -78t-448 -194q-88 -324 -162 -838t-74 -982v-532zM1732 1412q0 -104 20 -192t76 -172 q200 -276 482 -408t590 -132q72 0 140 4t132 12l-176 368q-216 444 -428 668t-448 224q-192 0 -290 -112t-98 -260z" />
<glyph unicode="R" horiz-adv-x="5124" d="M280 472l572 136v4196l-572 136l80 472h2236q900 0 1392 -370t492 -1094q0 -480 -228 -822t-668 -550l-24 -76l1008 -1888l492 -140l-80 -472h-1236l-1240 2364h-452v-1756l568 -136l-80 -472h-2180zM2052 2960h292q280 0 488 28t328 80q48 164 76 378t28 430 q0 544 -248 742t-760 198h-204v-1856z" />
<glyph unicode="S" horiz-adv-x="4520" d="M316 4136q0 648 566 1006t1562 358q404 0 794 -56t694 -152l84 -1160l-620 -88l-332 788q-156 36 -334 54t-350 18q-200 0 -400 -28t-388 -84q-32 -104 -54 -232t-22 -244q0 -252 198 -440t942 -624q924 -520 1274 -914t350 -958q0 -700 -584 -1084t-1596 -384 q-464 0 -892 68t-728 184l-84 1116l668 100l336 -788q164 -40 362 -62t398 -22q212 0 424 32t376 80q48 96 84 240t36 284q0 320 -252 560t-920 640q-1020 588 -1304 948t-288 844z" />
<glyph unicode="T" horiz-adv-x="4828" d="M32 4172l60 1240h4648l56 -1240l-592 -36l-252 680h-936v-4208l572 -136l-80 -472h-2184l-80 472l572 136v4208h-940l-248 -680z" />
<glyph unicode="U" horiz-adv-x="5600" d="M0 4940l80 472h2184l80 -472l-568 -136v-2620q0 -832 316 -1254t896 -422q292 0 548 66t404 158q132 248 222 606t90 746v2720l-572 136l80 472h1744l80 -472l-568 -136v-2628q0 -1144 -544 -1704t-1680 -560q-1148 0 -1682 516t-534 1536v2840z" />
<glyph unicode="V" horiz-adv-x="5032" d="M-104 4936l80 476h2024l80 -476l-572 -108l1220 -3620h64l1216 3616l-572 112l80 476h1612l80 -476l-380 -120l-1692 -4816h-1164l-1696 4816z" />
<glyph unicode="W" horiz-adv-x="8328" d="M-120 4936l80 476h1988l80 -476l-576 -112l1136 -3464h64l1272 4044v8h1084l1236 -4052h64l1016 3464l-592 112l80 476h1612l80 -476l-352 -112l-1484 -4824h-1164l-1192 3824h-64l-1208 -3824h-1168l-1624 4824z" />
<glyph unicode="X" horiz-adv-x="5404" d="M144 472l492 132l1428 2148l-1360 2056l-488 128l80 476h2164l80 -476l-504 -104l908 -1380l924 1380l-496 104l80 476h1700l80 -476l-496 -128l-1352 -2024l1440 -2180l492 -132l-80 -472h-2164l-80 472l504 108l-992 1504l-1004 -1504l488 -108l-80 -472h-1684z" />
<glyph unicode="Y" horiz-adv-x="4688" d="M-216 4936l80 476h2080l80 -476l-568 -108l1108 -1776l1056 1776l-540 108l80 476h1688l80 -476l-452 -124l-1468 -2464v-1740l568 -136l-80 -472h-2180l-80 472l572 136v1736l-1556 2468z" />
<glyph unicode="Z" horiz-adv-x="4660" d="M200 0v580l2780 4180l-20 56h-1764l-328 -772l-616 88l100 1280h4028v-576l-2784 -4184l20 -56h1928l328 772l612 -88l-96 -1280h-4188z" />
<glyph unicode="[" horiz-adv-x="2712" d="M600 -1828v8536h1872v-464h-764v-7608h764v-464h-1872z" />
<glyph unicode="\" horiz-adv-x="3532" d="M120 6080v80h860l2272 -7260v-80h-860z" />
<glyph unicode="]" horiz-adv-x="2712" d="M240 -1364h764v7608h-764v464h1872v-8536h-1872v464z" />
<glyph unicode="^" horiz-adv-x="4416" d="M400 4196v120l1524 1932h488l1524 -1932v-120h-796l-940 1176h-64l-936 -1176h-800z" />
<glyph unicode="_" horiz-adv-x="4704" d="M280 -900h4144v-696h-4144v696z" />
<glyph unicode="`" horiz-adv-x="3552" d="M800 6376v264l1140 40l812 -1452v-128l-672 -40z" />
<glyph unicode="a" horiz-adv-x="4752" d="M280 948q0 760 646 1140t1918 380v372q0 528 -182 778t-590 250q-168 0 -314 -18t-254 -42l-240 -848l-672 40v1212q340 96 766 156t826 60q928 0 1374 -370t446 -1118v-2332l572 -136l-80 -472l-1340 -88l-228 632q-248 -284 -622 -458t-802 -174q-592 0 -908 266 t-316 770zM1440 1100q0 -304 124 -466t356 -162q252 0 506 154t418 354v928q-400 0 -746 -64t-538 -168q-48 -100 -84 -250t-36 -326z" />
<glyph unicode="b" horiz-adv-x="4824" d="M16 5688l80 472l1652 88v-2380l56 -24q256 284 576 434t680 150q780 0 1136 -434t356 -1330v-376q0 -1092 -566 -1734t-1526 -642q-424 0 -944 100t-928 240v5300zM1748 580q140 -40 360 -74t432 -34q168 0 352 48t328 120q76 292 124 658t48 794v476q0 672 -160 986 t-540 314q-236 0 -486 -166t-458 -430v-2692z" />
<glyph unicode="c" horiz-adv-x="3968" d="M248 1596v372q0 1208 566 1834t1562 626q324 0 672 -66t644 -186l76 -1016l-680 -92l-292 760q-132 24 -258 32t-238 8q-188 0 -374 -46t-318 -114q-80 -268 -140 -672t-60 -828v-436q0 -640 294 -970t854 -330q256 0 592 92t588 200v-464q-304 -176 -710 -282t-826 -106 q-920 0 -1436 436t-516 1248z" />
<glyph unicode="d" horiz-adv-x="4968" d="M264 1652v372q0 1128 564 1766t1588 638q152 0 336 -22t356 -54v1200l-572 136l80 472l1652 88v-5640l572 -136l-80 -472l-1340 -88l-228 632q-224 -284 -586 -458t-762 -174q-776 0 -1178 436t-402 1304zM1424 1692q0 -600 190 -910t558 -310q236 0 486 142t450 366 v2788q-144 36 -354 68t-418 32q-228 0 -426 -54t-326 -134q-68 -276 -114 -658t-46 -810v-520z" />
<glyph unicode="e" horiz-adv-x="4312" d="M256 1656v332q0 1152 576 1796t1600 644q912 0 1304 -434t392 -1422v-520h-2712v-264q0 -640 310 -978t938 -338q272 0 632 80t620 180v-464q-292 -148 -752 -252t-936 -104q-948 0 -1460 448t-512 1296zM1428 2612h1540q0 700 -160 978t-544 278q-168 0 -338 -40 t-318 -116q-64 -232 -114 -528t-66 -572z" />
<glyph unicode="f" horiz-adv-x="3028" d="M232 3868l80 472h532v432q0 736 392 1106t1144 370q204 0 426 -42t382 -106l-172 -604q-176 64 -430 114t-462 50q-52 -140 -86 -352t-34 -472v-496h776l80 -472l-856 -136v-3124l772 -136l-80 -472h-2344l-80 472l572 136v3124z" />
<glyph unicode="g" horiz-adv-x="4368" d="M152 -1036q0 248 206 508t578 504q-280 72 -432 230t-152 394q0 264 214 546t538 506q-388 176 -570 452t-182 604v96q0 780 496 1202t1328 422q144 0 300 -22t304 -66h1320l72 -508h-684l-16 -40q196 -112 338 -324t142 -468v-60q0 -676 -510 -1072t-1330 -396 q-144 0 -276 10t-252 30q-176 -152 -284 -288t-108 -220q0 -96 94 -134t270 -38h828q972 0 1470 -310t498 -926q0 -688 -584 -1056t-1664 -368q-1012 0 -1482 190t-470 602zM1072 -820q0 -268 262 -358t1010 -90q284 0 556 42t504 122q48 84 78 210t30 250q0 312 -266 434 t-866 122h-880h-8q-184 -180 -302 -378t-118 -354zM1512 2824q0 -356 206 -574t474 -218q140 0 254 22t186 58q68 136 114 346t46 446v152q0 392 -194 602t-486 210q-116 0 -234 -20t-206 -60q-68 -152 -114 -368t-46 -444v-152z" />
<glyph unicode="h" horiz-adv-x="5512" d="M224 472l572 136v4944l-572 136l80 472l1652 88v-2380l56 -24q304 288 650 436t710 148q676 0 1034 -346t358 -1018v-2456l572 -136l-80 -472h-2144l-80 472l572 136v2396q0 436 -138 650t-454 214q-240 0 -530 -174t-526 -422v-2664l572 -136l-80 -472h-2144z" />
<glyph unicode="i" horiz-adv-x="2784" d="M272 472l572 136v3124l-572 136l80 472l1652 88v-3820l572 -136l-80 -472h-2144zM744 5580q0 284 150 498t350 214q292 0 500 -148t208 -360q0 -284 -152 -494t-348 -210q-288 0 -498 148t-210 352z" />
<glyph unicode="j" horiz-adv-x="2624" d="M-464 -1680l144 604q228 -64 508 -112t532 -52q68 132 114 368t46 528v4076l-692 136l80 472l1772 88v-4616q0 -852 -342 -1246t-1106 -394q-280 0 -580 44t-476 104zM780 5580q0 284 150 498t350 214q292 0 500 -148t208 -360q0 -284 -152 -494t-348 -210 q-288 0 -498 148t-210 352z" />
<glyph unicode="k" horiz-adv-x="5096" d="M224 472l572 136v4944l-572 136l80 472l1652 88v-3772l56 -24l1552 1348l-424 68l80 472h1660l80 -472l-448 -108l-1300 -1056l1316 -2096l504 -136l-80 -472h-1272l-1284 2040l-440 -356v-1076l572 -136l-80 -472h-2144z" />
<glyph unicode="l" horiz-adv-x="2656" d="M224 472l572 136v4944l-572 136l80 472l1652 88v-5640l572 -136l-80 -472h-2144z" />
<glyph unicode="m" horiz-adv-x="8376" d="M272 472l572 136v3124l-572 136l80 472l1340 88l232 -632q376 348 736 490t760 142q444 0 744 -142t524 -490q344 320 740 476t800 156q680 0 1036 -346t356 -1018v-2456l572 -136l-80 -472h-2144l-80 472l572 136v2396q0 444 -140 654t-452 210q-232 0 -522 -170 t-534 -426v-2664l572 -136l-80 -472h-2144l-80 472l572 136v2396q0 456 -144 660t-448 204q-228 0 -504 -158t-552 -438v-2664l572 -136l-80 -472h-2144z" />
<glyph unicode="n" horiz-adv-x="5568" d="M272 472l572 136v3124l-572 136l80 472l1340 88l232 -632q376 348 736 490t760 142q680 0 1036 -348t356 -1016v-2456l572 -136l-80 -472h-2144l-80 472l572 136v2396q0 460 -146 662t-446 202q-212 0 -486 -148t-570 -448v-2664l572 -136l-80 -472h-2144z" />
<glyph unicode="o" d="M248 1676v372q0 1116 580 1748t1540 632q952 0 1500 -460t548 -1344v-376q0 -1068 -572 -1702t-1580 -634q-964 0 -1490 464t-526 1300zM1408 1812q0 -640 284 -990t696 -350q200 0 374 44t294 116q88 228 144 590t56 790v476q0 672 -278 1026t-706 354q-192 0 -364 -44 t-300 -116q-92 -280 -146 -652t-54 -768v-476z" />
<glyph unicode="p" horiz-adv-x="4976" d="M136 -1264l572 136v4860l-572 136l80 472l1340 88l232 -632q300 316 654 474t734 158q768 0 1152 -450t384 -1354v-376q0 -1076 -554 -1706t-1518 -630q-204 0 -394 28t-378 72v-1140l572 -136l-80 -476h-2144zM1868 580q196 -52 388 -80t344 -28q216 0 420 44t344 116 q64 216 126 608t62 772v476q0 696 -172 1038t-572 342q-216 0 -468 -166t-472 -430v-2692z" />
<glyph unicode="q" horiz-adv-x="4668" d="M256 1636v332q0 1112 576 1786t1524 674q388 0 878 -66t986 -190v-6000l-1652 88l-80 472l572 136v1516l-40 16q-228 -212 -588 -350t-744 -138q-688 0 -1060 438t-372 1286zM1416 1812q0 -664 178 -1002t506 -338q224 0 482 142t478 366v2796q-172 44 -366 68t-386 24 q-212 0 -404 -52t-328 -136q-64 -244 -112 -630t-48 -762v-476z" />
<glyph unicode="r" horiz-adv-x="3676" d="M272 472l572 136v3124l-572 136l80 472l1340 88l232 -632q176 328 432 480t596 152q160 0 336 -44t324 -124l-100 -1212h-768l-108 756q-28 8 -56 12t-52 4q-120 0 -258 -146t-266 -402v-2664l704 -136l-80 -472h-2276z" />
<glyph unicode="s" horiz-adv-x="3848" d="M264 3272q0 536 474 846t1362 310q316 0 678 -68t702 -204l36 -1044l-676 -80l-244 776q-128 32 -266 46t-258 14q-152 0 -318 -22t-294 -62q-20 -64 -28 -140t-8 -152q0 -188 172 -348t768 -488q740 -400 1024 -712t284 -800q0 -588 -490 -910t-1382 -322 q-428 0 -810 78t-654 202l-40 1040l676 80l236 -756q136 -40 296 -62t324 -22q184 0 348 22t308 62q16 64 22 146t6 158q0 260 -198 452t-806 536q-688 376 -966 666t-278 758z" />
<glyph unicode="t" horiz-adv-x="3088" d="M32 3864l80 476h524l292 1172l868 -80v-1092h1000l80 -476l-1080 -128v-2568q0 -332 106 -514t418 -182q116 0 268 46t292 110v-456q-216 -124 -496 -192t-560 -68q-640 0 -914 282t-274 886v2656z" />
<glyph unicode="u" horiz-adv-x="5264" d="M32 3868l80 472l1652 88v-2936q0 -528 152 -774t484 -246q216 0 462 160t470 436v2664l-692 136l80 472l1772 88v-3820l572 -136l-80 -472l-1340 -88l-232 632q-308 -316 -670 -474t-778 -158q-680 0 -1020 380t-340 1124v2316z" />
<glyph unicode="v" horiz-adv-x="4400" d="M-96 3868l80 472h1800l80 -472l-492 -76l972 -2904h64l960 2904l-488 76l80 472h1456l80 -472l-368 -76l-1328 -3792h-1188l-1340 3788z" />
<glyph unicode="w" horiz-adv-x="7076" d="M-96 3868l80 472h1804l80 -472l-500 -76l876 -2764h64l956 3312h972l968 -3312h64l792 2764l-512 76l80 472h1464l80 -472l-360 -76l-1156 -3792h-1168l-868 2796h-64l-848 -2796h-1168l-1264 3792z" />
<glyph unicode="x" d="M104 472l400 72l1260 1628l-1232 1624l-372 72l80 472h1800l80 -472l-396 -56l776 -1020l804 1020l-380 56l80 472h1452l80 -472l-384 -72l-1228 -1560l1288 -1692l396 -72l-80 -472h-1828l-80 472l392 56l-824 1088l-844 -1088l388 -56l-80 -472h-1468z" />
<glyph unicode="y" horiz-adv-x="4416" d="M-80 3868l80 472h1800l80 -472l-492 -76l972 -2904h64l960 2904l-488 76l80 472h1456l80 -472l-368 -76l-1332 -3808q-344 -1000 -704 -1406t-912 -406q-284 0 -572 72t-528 196l164 684q300 -132 646 -228t574 -96q88 52 198 192t186 320l-1576 4480z" />
<glyph unicode="z" horiz-adv-x="4156" d="M224 0v380l2372 3392l-24 48h-1420l-208 -760l-576 44v1236h3628v-332l-2404 -3440l24 -48h1544l208 760l576 -44v-1236h-3720z" />
<glyph unicode="{" horiz-adv-x="3456" d="M520 2208v464h384q244 0 342 98t98 342v2476q0 240 84 446t234 356t356 234t446 84h752v-464h-84q-364 0 -522 -158t-158 -522v-2252q0 -248 -52 -412t-136 -262t-192 -138t-220 -40v-40q112 0 220 -40t192 -138t136 -262t52 -412v-2252q0 -364 158 -522t522 -158h84 v-464h-752q-240 0 -446 84t-356 234t-234 356t-84 446v2476q0 244 -98 342t-342 98h-384z" />
<glyph unicode="|" horiz-adv-x="2632" d="M980 -2148v8828h672v-8828h-672z" />
<glyph unicode="}" horiz-adv-x="3456" d="M240 -1364h84q364 0 522 158t158 522v2252q0 248 60 412t150 262t194 138t196 40v40q-92 0 -196 40t-194 138t-150 262t-60 412v2252q0 364 -158 522t-522 158h-84v464h752q240 0 446 -84t356 -234t234 -356t84 -446v-2476q0 -244 98 -342t342 -98h384v-464h-384 q-244 0 -342 -98t-98 -342v-2476q0 -240 -84 -446t-234 -356t-356 -234t-446 -84h-752v464z" />
<glyph unicode="~" horiz-adv-x="5124" d="M560 1996v300q0 224 80 396t218 288t328 174t414 58q152 0 336 -40t378 -98t390 -126t370 -126t312 -98t218 -40q76 0 150 30t132 90t94 150t36 210l548 40v-388q0 -212 -72 -382t-204 -288t-314 -182t-402 -64q-136 0 -320 40t-390 98t-414 126t-394 126t-330 98 t-220 40q-80 0 -158 -16t-138 -60t-96 -120t-36 -196z" />
<glyph unicode="&#xa1;" horiz-adv-x="2588" d="M584 -1740l288 4440h724l288 -4440l-1220 -88zM604 3612q0 160 38 308t104 262t154 180t192 66q172 0 320 -38t258 -104t174 -154t64 -188q0 -164 -38 -314t-104 -264t-154 -180t-188 -66q-172 0 -322 40t-260 106t-174 156t-64 190z" />
<glyph unicode="&#xa2;" horiz-adv-x="4320" d="M440 1596v372q0 1208 564 1832q440 484 1136 596v1016h632v-992q228 -12 468 -60q348 -64 644 -184l76 -1016l-680 -92l-292 760q-112 20 -216 28v-3384q248 4 568 92q336 92 588 200v-464q-304 -176 -712 -284q-220 -56 -444 -80v-916h-632v900q-740 56 -1184 428 q-516 436 -516 1248zM1600 1772q0 -640 292 -972q108 -116 248 -196v3220q-12 0 -24 -4q-184 -44 -316 -112q-80 -268 -140 -672t-60 -828v-436z" />
<glyph unicode="&#xa3;" horiz-adv-x="4540" d="M280 2736l428 112q-48 172 -82 322t-56 290t-32 286t-10 314q0 288 110 548t346 458t606 316t894 118q320 0 578 -52t442 -116q216 -72 380 -164v-1188l-584 -60l-300 944q-68 20 -156 36q-76 16 -180 28t-232 12q-140 0 -256 -20t-200 -44q-100 -28 -176 -60 q-32 -92 -56 -200q-20 -92 -38 -222t-18 -282q0 -312 44 -606t124 -610h1556v-596h-1392q56 -216 84 -408t28 -392q0 -192 -28 -358t-60 -286q-40 -144 -84 -260h1272l332 772l576 -88l-100 -1280h-3644l-80 472l564 116q0 4 22 64t46 162t44 240t20 302q0 112 -8 218 t-26 220t-46 238t-68 268h-504z" />
<glyph unicode="&#xa4;" horiz-adv-x="4992" d="M520 3932l616 516l620 -736q164 80 344 122t380 42q192 0 372 -42t344 -122l616 736l620 -524l-616 -732q128 -184 198 -396t70 -444q0 -252 -80 -478t-220 -414l644 -764l-616 -512l-660 784q-312 -140 -672 -140q-180 0 -350 36t-322 104l-660 -788l-620 520l640 768 q-140 188 -216 410t-76 474q0 232 68 446t196 394zM1780 2352q0 -184 56 -324t150 -234t222 -142t272 -48t270 48t222 142t150 234t54 324t-54 324t-150 234t-222 142t-270 48t-272 -48t-222 -142t-150 -234t-56 -324z" />
<glyph unicode="&#xa5;" horiz-adv-x="4864" d="M-120 4936l80 476h2080l80 -476l-568 -108l1108 -1776l1056 1776l-540 108l80 476h1688l80 -476l-452 -124l-1212 -2032h728v-668h-984v-512h984v-668h-984v-324l568 -136l-80 -472h-2180l-80 472l572 136v324h-1028v668h1028v512h-1028v668h752l-1280 2032z" />
<glyph unicode="&#xa6;" horiz-adv-x="2632" d="M980 1280h672v-3428h-672v3428zM980 3252v3428h672v-3428h-672z" />
<glyph unicode="&#xa7;" horiz-adv-x="4836" d="M480 2932q0 192 60 346t164 282t250 232t314 188q-236 184 -354 384t-118 472q0 228 94 430t320 350t602 234t936 86q364 0 642 -42t470 -94q224 -60 392 -136l-96 -1120h-604l-96 748q-88 24 -200 40q-96 16 -236 30t-320 14q-156 0 -296 -14t-248 -30 q-128 -16 -232 -40q-12 -36 -24 -80q-8 -40 -16 -96t-8 -128q0 -96 56 -174t188 -162t356 -194t560 -270q424 -204 732 -394t510 -386t300 -406t98 -450q0 -200 -58 -360t-166 -286t-258 -226t-334 -176q144 -104 246 -204t168 -210t96 -236t30 -278q0 -568 -510 -828 t-1510 -260q-360 0 -644 42t-488 98q-240 60 -424 140l88 1120h600l100 -748q88 -28 212 -48q104 -20 258 -32t358 -12t360 14t264 34q128 20 216 48q8 40 20 88q8 44 14 98t6 122q0 100 -68 188t-228 188t-420 226t-644 302q-376 172 -654 346t-462 362t-274 400t-90 468z M1560 3208q0 -132 42 -236t150 -208t292 -218t468 -270q244 -132 450 -244t382 -212q120 96 186 212t66 256q0 148 -52 256t-180 212t-342 224t-534 288q-204 108 -384 202t-340 186q-108 -100 -156 -210t-48 -238z" />
<glyph unicode="&#xa8;" horiz-adv-x="4140" d="M600 5556q0 124 34 234t92 192t136 130t162 48q124 0 234 -34t190 -94t126 -138t46 -166q0 -120 -34 -228t-90 -192t-134 -132t-162 -48q-128 0 -236 34t-190 94t-128 138t-46 162zM2520 5556q0 124 34 234t90 192t134 130t162 48q124 0 234 -34t192 -94t128 -138 t46 -166q0 -120 -34 -228t-92 -192t-136 -132t-166 -48q-128 0 -236 34t-186 94t-124 138t-46 162z" />
<glyph unicode="&#xa9;" horiz-adv-x="5388" d="M240 3796q0 508 194 956t526 780t780 524t956 192t956 -192t780 -524t524 -780t192 -956t-192 -956t-524 -780t-780 -526t-956 -194q-340 0 -654 88t-586 248t-496 384t-384 496t-248 586t-88 654zM948 3796q0 -364 136 -682t374 -556t556 -374t682 -136q360 0 678 136 t556 374t374 556t136 682q0 360 -136 678t-374 556t-556 374t-678 136q-364 0 -682 -136t-556 -374t-374 -556t-136 -678zM1436 3560v252q0 680 354 1044t998 364q184 0 328 -24t248 -52q120 -36 208 -76l48 -812l-392 -56l-176 548q-28 12 -68 24q-32 8 -82 16t-118 8 q-88 0 -158 -12t-118 -24q-56 -16 -100 -36q-28 -96 -48 -228q-20 -112 -32 -268t-12 -356v-212q0 -232 40 -394t112 -264t168 -148t208 -46q152 0 290 28t242 64q124 40 228 92v-376q-112 -68 -248 -120q-116 -44 -278 -80t-362 -36q-272 0 -506 82t-406 234t-270 370 t-98 494z" />
<glyph unicode="&#xaa;" horiz-adv-x="2532" d="M40 3760q0 400 324 608t1036 208v112q0 92 -20 174t-64 144t-120 98t-184 36q-60 0 -114 -4t-98 -12q-48 -8 -88 -16l-120 -464l-396 20v728q112 28 248 52q116 20 278 38t358 18q232 0 422 -40t322 -128t204 -230t72 -346v-1088l368 -68l-40 -316l-872 -44l-104 292 q-32 -36 -92 -86t-150 -96t-208 -78t-266 -32q-312 0 -504 134t-192 386zM740 3872q0 -148 58 -210t158 -62q84 0 162 40t142 88q72 56 140 128v360q-164 0 -278 -18t-190 -38q-88 -24 -148 -56q-12 -28 -24 -64q-20 -68 -20 -168z" />
<glyph unicode="&#xab;" horiz-adv-x="4412" d="M200 2144v240l1580 1684h780v-88l-1200 -1676v-80l1200 -1676v-88h-780zM2128 2192v144l1064 1556h780v-88l-668 -1540l668 -1540v-88h-780z" />
<glyph unicode="&#xac;" horiz-adv-x="4972" d="M640 2440v748h3692v-1968h-788v1220h-2904z" />
<glyph unicode="&#xad;" horiz-adv-x="3836" d="M640 1984l120 756l2516 164l-120 -756z" />
<glyph unicode="&#xae;" horiz-adv-x="5388" d="M240 3796q0 508 194 956t526 780t780 524t956 192t956 -192t780 -524t524 -780t192 -956t-192 -956t-524 -780t-780 -526t-956 -194q-340 0 -654 88t-586 248t-496 384t-384 496t-248 586t-88 654zM948 3796q0 -364 136 -682t374 -556t556 -374t682 -136q360 0 678 136 t556 374t374 556t136 682q0 360 -136 678t-374 556t-556 374t-678 136q-364 0 -682 -136t-556 -374t-374 -556t-136 -678zM1456 2800l280 60v1856l-280 68l36 260h1284q464 0 710 -168t246 -544q0 -264 -98 -420t-238 -264v-24l304 -780l240 -44l-36 -260h-784l-380 1044 h-236v-724l280 -60l-36 -260h-1256zM2504 3960h104q136 0 216 12q44 8 76 16q12 48 28 104l18 108t10 128q0 144 -88 242t-300 98h-64v-708z" />
<glyph unicode="&#xaf;" horiz-adv-x="4200" d="M520 5332l80 640h3000l-80 -640h-3000z" />
<glyph unicode="&#xb0;" horiz-adv-x="2616" d="M320 5220q0 212 84 400t228 328t338 220t418 80q220 0 416 -80t340 -220t228 -328t84 -400t-84 -400t-228 -328t-340 -220t-416 -80q-224 0 -418 80t-338 220t-228 328t-84 400zM940 5220q0 -232 128 -352t320 -120t320 120t128 352t-128 352t-320 120t-320 -120 t-128 -352z" />
<glyph unicode="&#xb1;" horiz-adv-x="4412" d="M640 2400v748h1192v1272h748v-1272h1192v-748h-1192v-1272h-748v1272h-1192zM748 0v748h2932v-748h-2932z" />
<glyph unicode="&#xb2;" horiz-adv-x="2324" d="M112 4340v328q280 280 520 522t416 450t274 386t98 330q0 200 -102 278t-246 78q-80 0 -150 -14t-126 -34q-64 -20 -120 -48l-112 -440l-380 20v664q124 64 284 112q136 44 320 80t400 36q208 0 384 -42t302 -126t196 -210t70 -298q0 -180 -90 -372t-242 -392t-350 -406 t-410 -422l8 -20h592l164 424l368 -44l-44 -840h-2024z" />
<glyph unicode="&#xb3;" horiz-adv-x="2192" d="M96 4456v700l372 24l104 -424q56 -28 124 -44q56 -16 130 -28t154 -12q168 0 288 106t120 314q0 132 -34 226t-92 150t-138 82t-172 26h-216v376h224q168 0 250 106t82 306q0 184 -92 264t-236 80q-68 0 -128 -10t-108 -22q-56 -16 -104 -32l-104 -424l-372 24v696 q128 40 276 72q128 28 290 52t342 24q472 0 714 -170t242 -478q0 -144 -46 -250t-116 -184t-152 -130t-150 -88q104 -32 204 -86t178 -132t126 -182t48 -240q0 -216 -84 -376t-238 -268t-364 -160t-462 -52q-160 0 -314 24t-274 56q-144 36 -272 84z" />
<glyph unicode="&#xb4;" horiz-adv-x="3420" d="M800 5100v128l732 1452l1088 -40v-264l-1200 -1316z" />
<glyph unicode="&#xb5;" horiz-adv-x="5472" d="M80 3868l80 472l1732 88v-2816q0 -332 52 -552t144 -350t218 -184t274 -54q200 0 362 78t278 174q132 112 240 256v2752l-772 136l80 472l1852 88v-3820l652 -136l-80 -472q-104 -28 -224 -44q-104 -20 -236 -32t-276 -12q-212 0 -366 58t-262 150t-176 204t-112 220 q-80 -104 -190 -216t-252 -204t-320 -152t-398 -60q-136 0 -244 30t-186 74t-132 92t-82 80l-40 -24l196 -1904l-1160 -88v5560z" />
<glyph unicode="&#xb6;" horiz-adv-x="5048" d="M360 3632q0 448 148 784t414 556t632 330t798 110h2536l80 -472l-648 -136v-4292q0 -416 -140 -736t-382 -540t-570 -332t-700 -112q-260 0 -474 28t-366 64q-180 44 -324 96v528q120 -36 260 -64q120 -24 282 -42t354 -18q212 0 374 60t270 196t162 354t54 538v4284 h-560v-2876h-260q-372 0 -722 96t-620 300t-434 524t-164 772z" />
<glyph unicode="&#xb7;" horiz-adv-x="2288" d="M560 2592q0 148 34 280t94 234t138 162t166 60q156 0 290 -34t234 -94t156 -140t56 -172q0 -144 -34 -278t-94 -236t-140 -162t-168 -60q-156 0 -288 34t-232 94t-156 140t-56 172z" />
<glyph unicode="&#xb8;" horiz-adv-x="3432" d="M800 -1188q112 -44 236 -80q104 -32 232 -56t256 -24q148 0 232 12q44 8 84 16q4 28 12 60q8 28 12 58t4 62q0 68 -28 122t-96 96t-180 76t-284 62l-184 288l236 644h688l-208 -528q188 -36 340 -92t258 -142t164 -204t58 -282q0 -160 -70 -294t-200 -230t-314 -150 t-408 -54q-184 0 -336 28t-264 64q-132 44 -240 96v452z" />
<glyph unicode="&#xb9;" horiz-adv-x="1784" d="M100 6820l728 228h464v-2324l404 -68l-40 -316h-1452l-40 316l408 68v1868h-452z" />
<glyph unicode="&#xba;" horiz-adv-x="2348" d="M40 4124v184q0 292 84 514t234 372t356 228t450 78q248 0 454 -54t354 -164t230 -282t82 -404v-188q0 -244 -70 -458t-212 -372t-356 -248t-502 -90q-280 0 -486 62t-344 178t-206 280t-68 364zM740 4192q0 -156 40 -268t106 -184t148 -106t170 -34q52 0 104 12t96 28 q48 16 100 40q24 68 40 160q16 80 28 192t12 260v236q0 176 -40 294t-106 188t-148 100t-166 30q-56 0 -110 -12t-98 -28q-52 -16 -96 -40q-24 -76 -40 -172q-16 -84 -28 -200t-12 -260v-236z" />
<glyph unicode="&#xbb;" horiz-adv-x="4412" d="M440 636v88l668 1540l-668 1540v88h780l1064 -1556v-144l-1064 -1556h-780zM1852 460v88l1200 1676v80l-1200 1676v88h780l1580 -1684v-240l-1580 -1684h-780z" />
<glyph unicode="&#xbc;" horiz-adv-x="5356" d="M160 5184l728 228h464v-2324l404 -68l-40 -316h-1452l-40 316l408 68v1868h-452zM396 0v80l3916 5332h580v-80l-3916 -5332h-580zM2940 976l1120 1732h628l-1100 -1644h456v432h720v-432h344l48 -320l-392 -68v-292l384 -68l-40 -316h-1488l-40 316l464 68v300h-1056z " />
<glyph unicode="&#xbd;" horiz-adv-x="5356" d="M160 5184l728 228h464v-2324l404 -68l-40 -316h-1452l-40 316l408 68v1868h-452zM396 0v80l3916 5332h580v-80l-3916 -5332h-580zM3284 0v328q280 280 520 522t416 450t274 386t98 330q0 200 -102 278t-246 78q-80 0 -150 -14t-126 -34q-64 -20 -120 -48l-112 -440 l-380 20v664q124 64 284 112q136 44 320 80t400 36q208 0 384 -42t302 -126t196 -210t70 -298q0 -180 -90 -372t-242 -392t-350 -406t-410 -422l8 -20h592l164 424l368 -44l-44 -840h-2024z" />
<glyph unicode="&#xbe;" horiz-adv-x="5356" d="M64 2868v700l372 24l104 -424q56 -28 124 -44q56 -16 130 -28t154 -12q168 0 288 106t120 314q0 132 -34 226t-92 150t-138 82t-172 26h-216v376h224q168 0 250 106t82 306q0 184 -92 264t-236 80q-68 0 -128 -10t-108 -22q-56 -16 -104 -32l-104 -424l-372 24v696 q128 40 276 72q128 28 290 52t342 24q472 0 714 -170t242 -478q0 -144 -46 -250t-116 -184t-152 -130t-150 -88q104 -32 204 -86t178 -132t126 -182t48 -240q0 -216 -84 -376t-238 -268t-364 -160t-462 -52q-160 0 -314 24t-274 56q-144 36 -272 84zM396 0v80l3916 5332h580 v-80l-3916 -5332h-580zM2940 976l1120 1732h628l-1100 -1644h456v432h720v-432h344l48 -320l-392 -68v-292l384 -68l-40 -316h-1488l-40 316l464 68v300h-1056z" />
<glyph unicode="&#xbf;" horiz-adv-x="4116" d="M224 -764q0 244 58 434t186 376t336 392t508 478l644 584q160 144 218 258t58 242q0 136 -76 206t-216 70q-80 0 -170 -20t-166 -44q-88 -28 -176 -60v484q108 56 248 100q120 36 292 68t388 32q232 0 422 -48t326 -148t212 -248t76 -352q0 -164 -46 -310t-142 -292 t-244 -306t-352 -348l-728 -672q-144 -132 -238 -238t-152 -202t-82 -192t-24 -212q0 -108 44 -206t138 -170t236 -116t338 -44q180 0 310 20t222 44q104 28 180 64l280 900l608 -68v-1188q-216 -96 -484 -168q-228 -64 -546 -114t-698 -50q-416 0 -746 72t-562 208 t-356 334t-124 450zM1760 3612q0 160 38 308t104 262t154 180t192 66q172 0 320 -38t258 -104t174 -154t64 -188q0 -164 -38 -314t-104 -264t-154 -180t-188 -66q-172 0 -322 40t-260 106t-174 156t-64 190z" />
<glyph unicode="&#xc0;" horiz-adv-x="5064" d="M-104 472l400 112l1732 4828h1052l1692 -4828l396 -112l-80 -472h-1976l-80 472l528 112l-328 960h-1812l-336 -960l528 -112l-80 -472h-1556zM948 6832v264l1128 40l1112 -1124v-128l-660 -44zM1624 2140h1408l-664 1952h-64z" />
<glyph unicode="&#xc1;" horiz-adv-x="5064" d="M-104 472l400 112l1732 4828h1052l1692 -4828l396 -112l-80 -472h-1976l-80 472l528 112l-328 960h-1812l-336 -960l528 -112l-80 -472h-1556zM1624 2140h1408l-664 1952h-64zM1920 5884v128l1112 1124l1128 -40v-264l-1580 -992z" />
<glyph unicode="&#xc2;" horiz-adv-x="5064" d="M-104 472l400 112l1732 4828h1052l1692 -4828l396 -112l-80 -472h-1976l-80 472l528 112l-328 960h-1812l-336 -960l528 -112l-80 -472h-1556zM1108 5880v128l1052 1168l892 -40l1012 -1128v-128l-700 -40l-852 684l-824 -684zM1624 2140h1408l-664 1952h-64z" />
<glyph unicode="&#xc3;" horiz-adv-x="5064" d="M-104 472l400 112l1732 4828h1052l1692 -4828l396 -112l-80 -472h-1976l-80 472l528 112l-328 960h-1812l-336 -960l528 -112l-80 -472h-1556zM668 5892v200q0 508 268 762t732 254q264 0 532 -82t514 -182t452 -182t346 -82q172 0 272 118t100 362l548 40v-288 q0 -476 -246 -746t-706 -270q-232 0 -508 82t-542 182t-494 182t-364 82q-92 0 -162 -16t-122 -60t-78 -120t-26 -196zM1624 2140h1408l-664 1952h-64z" />
<glyph unicode="&#xc4;" horiz-adv-x="5064" d="M-104 472l400 112l1732 4828h1052l1692 -4828l396 -112l-80 -472h-1976l-80 472l528 112l-328 960h-1812l-336 -960l528 -112l-80 -472h-1556zM972 6308q0 124 34 234t92 192t136 130t162 48q124 0 234 -34t190 -92t126 -138t46 -168q0 -120 -34 -228t-90 -192t-134 -132 t-162 -48q-128 0 -236 34t-190 94t-128 138t-46 162zM1624 2140h1408l-664 1952h-64zM3140 6308q0 124 34 234t90 192t134 130t162 48q124 0 234 -34t192 -92t128 -138t46 -168q0 -120 -34 -228t-92 -192t-136 -132t-166 -48q-128 0 -236 34t-186 94t-124 138t-46 162z" />
<glyph unicode="&#xc5;" horiz-adv-x="5064" d="M-104 472l400 112l1732 4828h1052l1692 -4828l396 -112l-80 -472h-1976l-80 472l528 112l-328 960h-1812l-336 -960l528 -112l-80 -472h-1556zM1624 2140h1408l-664 1952h-64zM1660 6280q0 232 78 404t208 286t304 170t366 56q176 0 334 -38t278 -118t190 -204t70 -300 q0 -244 -74 -418t-202 -286t-302 -164t-374 -52q-184 0 -344 38t-278 120t-186 206t-68 300zM2280 6408q0 -204 88 -312t228 -108q56 0 98 4t74 12q36 8 68 20q8 44 16 104q8 52 14 122t6 158q0 204 -88 312t-228 108q-44 0 -80 -6t-64 -14q-32 -8 -56 -16q-24 -44 -40 -100 q-16 -48 -26 -120t-10 -164z" />
<glyph unicode="&#xc6;" horiz-adv-x="7136" d="M-136 472l500 124l2580 4816h3688l96 -1280l-492 -88l-332 772h-1528v-1688h1148l136 528l476 -80v-1496l-476 -80l-136 532h-1148v-1936h1644l332 772l496 -92l-96 -1276h-4148l-80 472l652 136v936h-1528l-508 -972l468 -100l-80 -472h-1584zM1960 2140h1216v2316z" />
<glyph unicode="&#xc7;" horiz-adv-x="4744" d="M280 2060v356q0 1516 668 2300t1992 784q364 0 746 -60t706 -176l84 -1160l-620 -88l-340 796q-128 44 -314 68t-370 24q-300 0 -602 -88t-514 -224q-100 -368 -168 -856t-68 -1004v-532q0 -832 394 -1262t1170 -430q340 0 722 112t722 304v-504q-356 -232 -828 -372 q-352 -100 -716 -128l-116 -300q188 -36 340 -92t258 -142t164 -204t58 -282q0 -160 -70 -294t-200 -230t-314 -150t-408 -54q-184 0 -336 28t-264 64q-132 44 -240 96v452q112 -44 236 -80q104 -32 232 -56t256 -24q148 0 232 12q44 8 84 16q4 28 12 60q8 28 12 58t4 62 q0 68 -28 122t-96 96t-180 76t-284 62l-184 288l156 428q-880 84 -1376 528q-612 548 -612 1600z" />
<glyph unicode="&#xc8;" horiz-adv-x="4812" d="M280 472l572 136v4196l-572 136l80 472h3948l96 -1280l-532 -88l-332 772h-1488v-1688h1148l136 448l476 -80v-1336l-476 -80l-136 452h-1148v-1936h1604l332 772l536 -92l-96 -1276h-4068zM768 6832v264l1128 40l1112 -1124v-128l-660 -44z" />
<glyph unicode="&#xc9;" horiz-adv-x="4812" d="M280 472l572 136v4196l-572 136l80 472h3948l96 -1280l-532 -88l-332 772h-1488v-1688h1148l136 448l476 -80v-1336l-476 -80l-136 452h-1148v-1936h1604l332 772l536 -92l-96 -1276h-4068zM1740 5884v128l1112 1124l1128 -40v-264l-1580 -992z" />
<glyph unicode="&#xca;" horiz-adv-x="4812" d="M280 472l572 136v4196l-572 136l80 472h3948l96 -1280l-532 -88l-332 772h-1488v-1688h1148l136 448l476 -80v-1336l-476 -80l-136 452h-1148v-1936h1604l332 772l536 -92l-96 -1276h-4068zM928 5880v128l1052 1168l892 -40l1012 -1128v-128l-700 -40l-852 684l-824 -684 z" />
<glyph unicode="&#xcb;" horiz-adv-x="4812" d="M280 472l572 136v4196l-572 136l80 472h3948l96 -1280l-532 -88l-332 772h-1488v-1688h1148l136 448l476 -80v-1336l-476 -80l-136 452h-1148v-1936h1604l332 772l536 -92l-96 -1276h-4068zM792 6308q0 124 34 234t92 192t136 130t162 48q124 0 234 -34t190 -92t126 -138 t46 -168q0 -120 -34 -228t-90 -192t-134 -132t-162 -48q-128 0 -236 34t-190 94t-128 138t-46 162zM2960 6308q0 124 34 234t90 192t134 130t162 48q124 0 234 -34t192 -92t128 -138t46 -168q0 -120 -34 -228t-92 -192t-136 -132t-166 -48q-128 0 -236 34t-186 94t-124 138 t-46 162z" />
<glyph unicode="&#xcc;" horiz-adv-x="2868" d="M-184 6832v264l1128 40l1112 -1124v-128l-660 -44zM272 472l572 136v4196l-572 136l80 472h2180l80 -472l-568 -136v-4196l568 -136l-80 -472h-2180z" />
<glyph unicode="&#xcd;" horiz-adv-x="2868" d="M272 472l572 136v4196l-572 136l80 472h2180l80 -472l-568 -136v-4196l568 -136l-80 -472h-2180zM784 5884v128l1112 1124l1128 -40v-264l-1580 -992z" />
<glyph unicode="&#xce;" horiz-adv-x="2868" d="M-28 5880v128l1052 1168l892 -40l1012 -1128v-128l-700 -40l-852 684l-824 -684zM272 472l572 136v4196l-572 136l80 472h2180l80 -472l-568 -136v-4196l568 -136l-80 -472h-2180z" />
<glyph unicode="&#xcf;" horiz-adv-x="2868" d="M-164 6308q0 124 34 234t92 192t136 130t162 48q124 0 234 -34t190 -92t126 -138t46 -168q0 -120 -34 -228t-90 -192t-134 -132t-162 -48q-128 0 -236 34t-190 94t-128 138t-46 162zM272 472l572 136v4196l-572 136l80 472h2180l80 -472l-568 -136v-4196l568 -136 l-80 -472h-2180zM2004 6308q0 124 34 234t90 192t134 130t162 48q124 0 234 -34t192 -92t128 -138t46 -168q0 -120 -34 -228t-92 -192t-136 -132t-166 -48q-128 0 -236 34t-186 94t-124 138t-46 162z" />
<glyph unicode="&#xd0;" horiz-adv-x="5712" d="M200 2436v676h652v1692l-572 136l80 472h2472q1268 0 1914 -604t646 -1748v-312q0 -1268 -682 -2008t-1838 -740h-2512l-80 472l572 136v1828h-652zM2052 596h644q236 0 492 32t460 84q208 288 376 776t168 1000v376q0 992 -400 1472t-1228 480h-512v-1704h960v-676h-960 v-1840z" />
<glyph unicode="&#xd1;" horiz-adv-x="6316" d="M272 472l572 136v4196l-572 136l80 472h2080l2368 -4404h64v3796l-576 136l80 472h1788l80 -472l-568 -136v-4804h-1596l-2364 4400h-64v-3792l648 -136l-80 -472h-1860zM1424 5892v200q0 508 268 762t732 254q264 0 532 -82t514 -182t452 -182t346 -82q172 0 272 118 t100 362l548 40v-288q0 -476 -246 -746t-706 -270q-232 0 -508 82t-542 182t-494 182t-364 82q-92 0 -162 -16t-122 -60t-78 -120t-26 -196z" />
<glyph unicode="&#xd2;" horiz-adv-x="5628" d="M344 2100v316q0 1576 664 2330t1928 754q1208 0 1830 -548t622 -1644v-312q0 -1540 -652 -2312t-1956 -772q-1212 0 -1824 548t-612 1640zM1216 6832v264l1128 40l1112 -1124v-128l-660 -44zM1544 2280q0 -836 390 -1304t1014 -468q320 0 598 88t410 188q84 300 158 814 t74 1002v532q0 868 -354 1320t-1046 452q-300 0 -570 -80t-438 -192q-72 -256 -154 -772t-82 -1048v-532z" />
<glyph unicode="&#xd3;" horiz-adv-x="5628" d="M344 2100v316q0 1576 664 2330t1928 754q1208 0 1830 -548t622 -1644v-312q0 -1540 -652 -2312t-1956 -772q-1212 0 -1824 548t-612 1640zM1544 2280q0 -836 390 -1304t1014 -468q320 0 598 88t410 188q84 300 158 814t74 1002v532q0 868 -354 1320t-1046 452 q-300 0 -570 -80t-438 -192q-72 -256 -154 -772t-82 -1048v-532zM2188 5884v128l1112 1124l1128 -40v-264l-1580 -992z" />
<glyph unicode="&#xd4;" horiz-adv-x="5628" d="M344 2100v316q0 1576 664 2330t1928 754q1208 0 1830 -548t622 -1644v-312q0 -1540 -652 -2312t-1956 -772q-1212 0 -1824 548t-612 1640zM1376 5880v128l1052 1168l892 -40l1012 -1128v-128l-700 -40l-852 684l-824 -684zM1544 2280q0 -836 390 -1304t1014 -468 q320 0 598 88t410 188q84 300 158 814t74 1002v532q0 868 -354 1320t-1046 452q-300 0 -570 -80t-438 -192q-72 -256 -154 -772t-82 -1048v-532z" />
<glyph unicode="&#xd5;" horiz-adv-x="5628" d="M344 2100v316q0 1576 664 2330t1928 754q1208 0 1830 -548t622 -1644v-312q0 -1540 -652 -2312t-1956 -772q-1212 0 -1824 548t-612 1640zM936 5892v200q0 508 268 762t732 254q264 0 532 -82t514 -182t452 -182t346 -82q172 0 272 118t100 362l548 40v-288 q0 -476 -246 -746t-706 -270q-232 0 -508 82t-542 182t-494 182t-364 82q-92 0 -162 -16t-122 -60t-78 -120t-26 -196zM1544 2280q0 -836 390 -1304t1014 -468q320 0 598 88t410 188q84 300 158 814t74 1002v532q0 868 -354 1320t-1046 452q-300 0 -570 -80t-438 -192 q-72 -256 -154 -772t-82 -1048v-532z" />
<glyph unicode="&#xd6;" horiz-adv-x="5628" d="M344 2100v316q0 1576 664 2330t1928 754q1208 0 1830 -548t622 -1644v-312q0 -1540 -652 -2312t-1956 -772q-1212 0 -1824 548t-612 1640zM1240 6308q0 124 34 234t92 192t136 130t162 48q124 0 234 -34t190 -92t126 -138t46 -168q0 -120 -34 -228t-90 -192t-134 -132 t-162 -48q-128 0 -236 34t-190 94t-128 138t-46 162zM1544 2280q0 -836 390 -1304t1014 -468q320 0 598 88t410 188q84 300 158 814t74 1002v532q0 868 -354 1320t-1046 452q-300 0 -570 -80t-438 -192q-72 -256 -154 -772t-82 -1048v-532zM3408 6308q0 124 34 234t90 192 t134 130t162 48q124 0 234 -34t192 -92t128 -138t46 -168q0 -120 -34 -228t-92 -192t-136 -132t-166 -48q-128 0 -236 34t-186 94t-124 138t-46 162z" />
<glyph unicode="&#xd7;" horiz-adv-x="4436" d="M680 1412l960 960l-960 964l576 576l960 -964l964 964l576 -576l-964 -964l964 -960l-576 -576l-964 960l-960 -960z" />
<glyph unicode="&#xd8;" horiz-adv-x="5628" d="M344 2100v316q0 752 156 1328t476 966t808 590t1152 200q112 0 216 -6t208 -14l212 680h780v-80l-236 -756q632 -224 952 -724t320 -1292v-312q0 -756 -158 -1332t-480 -966t-814 -588t-1156 -198q-188 0 -356 12l-264 -844h-780v80l284 908q-660 216 -990 722t-330 1310 zM1544 2280q0 -448 108 -776t292 -544l1220 3904q-92 20 -186 30t-190 10q-240 0 -426 -42t-314 -94q-152 -60 -268 -136q-68 -248 -120 -536q-44 -252 -80 -580t-36 -704v-532zM2616 544q160 -36 332 -36q236 0 420 42t316 94q152 60 272 140q64 252 116 544q44 252 80 578 t36 694v532q0 460 -92 782t-256 530z" />
<glyph unicode="&#xd9;" horiz-adv-x="5600" d="M0 4940l80 472h2184l80 -472l-568 -136v-2620q0 -832 316 -1254t896 -422q292 0 548 66t404 158q132 248 222 606t90 746v2720l-572 136l80 472h1744l80 -472l-568 -136v-2628q0 -1144 -544 -1704t-1680 -560q-1148 0 -1682 516t-534 1536v2840zM1404 6832v264l1128 40 l1112 -1124v-128l-660 -44z" />
<glyph unicode="&#xda;" horiz-adv-x="5600" d="M0 4940l80 472h2184l80 -472l-568 -136v-2620q0 -832 316 -1254t896 -422q292 0 548 66t404 158q132 248 222 606t90 746v2720l-572 136l80 472h1744l80 -472l-568 -136v-2628q0 -1144 -544 -1704t-1680 -560q-1148 0 -1682 516t-534 1536v2840zM2376 5884v128l1112 1124 l1128 -40v-264l-1580 -992z" />
<glyph unicode="&#xdb;" horiz-adv-x="5600" d="M0 4940l80 472h2184l80 -472l-568 -136v-2620q0 -832 316 -1254t896 -422q292 0 548 66t404 158q132 248 222 606t90 746v2720l-572 136l80 472h1744l80 -472l-568 -136v-2628q0 -1144 -544 -1704t-1680 -560q-1148 0 -1682 516t-534 1536v2840zM1564 5880v128l1052 1168 l892 -40l1012 -1128v-128l-700 -40l-852 684l-824 -684z" />
<glyph unicode="&#xdc;" horiz-adv-x="5600" d="M0 4940l80 472h2184l80 -472l-568 -136v-2620q0 -832 316 -1254t896 -422q292 0 548 66t404 158q132 248 222 606t90 746v2720l-572 136l80 472h1744l80 -472l-568 -136v-2628q0 -1144 -544 -1704t-1680 -560q-1148 0 -1682 516t-534 1536v2840zM1428 6308q0 124 34 234 t92 192t136 130t162 48q124 0 234 -34t190 -92t126 -138t46 -168q0 -120 -34 -228t-90 -192t-134 -132t-162 -48q-128 0 -236 34t-190 94t-128 138t-46 162zM3596 6308q0 124 34 234t90 192t134 130t162 48q124 0 234 -34t192 -92t128 -138t46 -168q0 -120 -34 -228 t-92 -192t-136 -132t-166 -48q-128 0 -236 34t-186 94t-124 138t-46 162z" />
<glyph unicode="&#xdd;" horiz-adv-x="4688" d="M-216 4936l80 476h2080l80 -476l-568 -108l1108 -1776l1056 1776l-540 108l80 476h1688l80 -476l-452 -124l-1468 -2464v-1740l568 -136l-80 -472h-2180l-80 472l572 136v1736l-1556 2468zM1912 5884v128l1112 1124l1128 -40v-264l-1580 -992z" />
<glyph unicode="&#xde;" horiz-adv-x="4392" d="M28 472l652 136v4196l-652 136l80 472h2340l80 -472l-648 -136v-464h468q460 0 826 -82t622 -252t390 -430t134 -616q0 -404 -154 -716t-414 -524t-602 -320t-718 -108h-552v-684l888 -136l-80 -472h-2580zM1880 1888h300q180 0 328 18t256 38q128 24 228 56 q32 116 56 248q20 112 38 256t18 296q0 208 -54 382t-178 298t-324 194t-488 70h-180v-1856z" />
<glyph unicode="&#xdf;" horiz-adv-x="5156" d="M64 3868l80 472h612v256q0 380 120 686t366 520t622 330t892 116q352 0 668 -68t554 -220t378 -398t140 -602q0 -268 -84 -500t-226 -430t-326 -366t-388 -304q108 -60 236 -132q104 -64 240 -152t276 -200q216 -176 386 -350t288 -364t178 -404t60 -470 q0 -328 -124 -584t-348 -432t-534 -268t-678 -92q-284 0 -508 42t-380 98q-184 60 -324 140v1004l604 40l184 -672q44 -28 108 -48q52 -20 128 -32t176 -12q92 0 164 10t124 26q60 16 108 40q36 64 68 140q28 68 50 156t22 192q0 156 -22 292t-88 276t-184 290t-314 330 q-144 132 -294 238t-274 186q-144 88 -276 160v464q204 200 356 392t254 384t152 392t50 420q0 432 -180 630t-520 198q-156 0 -266 -20t-178 -40q-80 -24 -132 -56q-40 -120 -72 -280q-28 -136 -50 -326t-22 -426v-4540h-1732l-80 472l652 136v3124z" />
<glyph unicode="&#xe0;" horiz-adv-x="4752" d="M280 948q0 760 646 1140t1918 380v372q0 528 -182 778t-590 250q-168 0 -314 -18t-254 -42l-240 -848l-672 40v1212q340 96 766 156t826 60q928 0 1374 -370t446 -1118v-2332l572 -136l-80 -472l-1340 -88l-228 632q-248 -284 -622 -458t-802 -174q-592 0 -908 266 t-316 770zM788 6376v264l1140 40l812 -1452v-128l-672 -40zM1440 1100q0 -304 124 -466t356 -162q252 0 506 154t418 354v928q-400 0 -746 -64t-538 -168q-48 -100 -84 -250t-36 -326z" />
<glyph unicode="&#xe1;" horiz-adv-x="4752" d="M280 948q0 760 646 1140t1918 380v372q0 528 -182 778t-590 250q-168 0 -314 -18t-254 -42l-240 -848l-672 40v1212q340 96 766 156t826 60q928 0 1374 -370t446 -1118v-2332l572 -136l-80 -472l-1340 -88l-228 632q-248 -284 -622 -458t-802 -174q-592 0 -908 266 t-316 770zM1440 1100q0 -304 124 -466t356 -162q252 0 506 154t418 354v928q-400 0 -746 -64t-538 -168q-48 -100 -84 -250t-36 -326zM1760 5100v128l732 1452l1088 -40v-264l-1200 -1316z" />
<glyph unicode="&#xe2;" horiz-adv-x="4752" d="M280 948q0 760 646 1140t1918 380v372q0 528 -182 778t-590 250q-168 0 -314 -18t-254 -42l-240 -848l-672 40v1212q340 96 766 156t826 60q928 0 1374 -370t446 -1118v-2332l572 -136l-80 -472l-1340 -88l-228 632q-248 -284 -622 -458t-802 -174q-592 0 -908 266 t-316 770zM868 5100v128l892 1492l972 -40l892 -1452v-128l-700 -40l-752 876l-724 -876zM1440 1100q0 -304 124 -466t356 -162q252 0 506 154t418 354v928q-400 0 -746 -64t-538 -168q-48 -100 -84 -250t-36 -326z" />
<glyph unicode="&#xe3;" horiz-adv-x="4752" d="M280 948q0 760 646 1140t1918 380v372q0 528 -182 778t-590 250q-168 0 -314 -18t-254 -42l-240 -848l-672 40v1212q340 96 766 156t826 60q928 0 1374 -370t446 -1118v-2332l572 -136l-80 -472l-1340 -88l-228 632q-248 -284 -622 -458t-802 -174q-592 0 -908 266 t-316 770zM536 5028v200q0 508 246 762t674 254q228 0 462 -82t446 -182t394 -182t302 -82q136 0 214 118t78 362l548 40v-288q0 -476 -224 -746t-648 -270q-204 0 -446 82t-474 182t-432 182t-316 82q-144 0 -226 -76t-82 -316zM1440 1100q0 -304 124 -466t356 -162 q252 0 506 154t418 354v928q-400 0 -746 -64t-538 -168q-48 -100 -84 -250t-36 -326z" />
<glyph unicode="&#xe4;" horiz-adv-x="4752" d="M280 948q0 760 646 1140t1918 380v372q0 528 -182 778t-590 250q-168 0 -314 -18t-254 -42l-240 -848l-672 40v1212q340 96 766 156t826 60q928 0 1374 -370t446 -1118v-2332l572 -136l-80 -472l-1340 -88l-228 632q-248 -284 -622 -458t-802 -174q-592 0 -908 266 t-316 770zM724 5556q0 124 34 234t92 192t136 130t162 48q124 0 234 -34t190 -94t126 -138t46 -166q0 -120 -34 -228t-90 -192t-134 -132t-162 -48q-128 0 -236 34t-190 94t-128 138t-46 162zM1440 1100q0 -304 124 -466t356 -162q252 0 506 154t418 354v928 q-400 0 -746 -64t-538 -168q-48 -100 -84 -250t-36 -326zM2644 5556q0 124 34 234t90 192t134 130t162 48q124 0 234 -34t192 -94t128 -138t46 -166q0 -120 -34 -228t-92 -192t-136 -132t-166 -48q-128 0 -236 34t-186 94t-124 138t-46 162z" />
<glyph unicode="&#xe5;" horiz-adv-x="4752" d="M280 948q0 760 646 1140t1918 380v372q0 528 -182 778t-590 250q-168 0 -314 -18t-254 -42l-240 -848l-672 40v1212q340 96 766 156t826 60q928 0 1374 -370t446 -1118v-2332l572 -136l-80 -472l-1340 -88l-228 632q-248 -284 -622 -458t-802 -174q-592 0 -908 266 t-316 770zM1332 5744q0 244 78 424t208 298t304 176t366 58q176 0 334 -40t278 -124t190 -218t70 -318q0 -256 -74 -438t-202 -298t-302 -170t-374 -54q-184 0 -344 40t-278 126t-186 220t-68 318zM1440 1100q0 -304 124 -466t356 -162q252 0 506 154t418 354v928 q-400 0 -746 -64t-538 -168q-48 -100 -84 -250t-36 -326zM1952 5872q0 -224 88 -342t228 -118q56 0 98 4t74 12q36 8 68 20q8 48 16 116q8 56 14 134t6 174q0 224 -88 342t-228 118q-44 0 -80 -6t-64 -14q-32 -8 -56 -16q-24 -44 -40 -108q-16 -56 -26 -134t-10 -182z" />
<glyph unicode="&#xe6;" horiz-adv-x="6740" d="M280 948q0 360 144 650t454 492t796 310t1170 108v300q0 552 -192 806t-580 254q-124 0 -228 -10t-180 -22q-88 -16 -160 -28l-240 -848l-672 40v1212q208 60 460 108q216 40 504 74t628 34q472 0 834 -98t598 -326q264 216 588 320t708 104q468 0 784 -120t506 -362 t272 -606t82 -848v-520h-2552v-184q0 -372 92 -624t248 -406t360 -220t428 -66q216 0 430 40t390 88q204 56 392 132v-464q-200 -104 -448 -180q-216 -68 -508 -122t-652 -54q-272 0 -514 42t-452 130t-378 226t-288 326q-68 -84 -208 -208t-344 -238t-464 -196t-564 -82 q-612 0 -928 266t-316 770zM1440 1100q0 -168 40 -288t106 -196t152 -110t182 -34q200 0 376 84t310 190t218 198t96 108q-76 264 -76 604v292q-344 0 -586 -36t-398 -80q-184 -52 -300 -116q-36 -68 -60 -164q-24 -80 -42 -196t-18 -256zM4012 2532h1384q0 348 -30 600 t-102 416t-188 242t-284 78q-144 0 -254 -24t-186 -56q-88 -36 -148 -80q-44 -140 -84 -320q-32 -152 -64 -370t-44 -486z" />
<glyph unicode="&#xe7;" horiz-adv-x="3968" d="M248 1596v372q0 1208 566 1834t1562 626q324 0 672 -66t644 -186l76 -1016l-680 -92l-292 760q-132 24 -258 32t-238 8q-188 0 -374 -46t-318 -114q-80 -268 -140 -672t-60 -828v-436q0 -640 294 -970t854 -330q256 0 592 92t588 200v-464q-304 -176 -712 -284 q-288 -72 -584 -92l-116 -304q188 -36 340 -92t258 -142t164 -204t58 -282q0 -160 -70 -294t-200 -230t-314 -150t-408 -54q-184 0 -336 28t-264 64q-132 44 -240 96v452q112 -44 236 -80q104 -32 232 -56t256 -24q148 0 232 12q44 8 84 16q4 28 12 60q8 28 12 58t4 62 q0 68 -28 122t-96 96t-180 76t-284 62l-184 288l160 436q-616 80 -1004 408q-516 436 -516 1248z" />
<glyph unicode="&#xe8;" horiz-adv-x="4312" d="M256 1656v332q0 1152 576 1796t1600 644q912 0 1304 -434t392 -1422v-520h-2712v-264q0 -640 310 -978t938 -338q272 0 632 80t620 180v-464q-292 -148 -752 -252t-936 -104q-948 0 -1460 448t-512 1296zM972 6376v264l1140 40l812 -1452v-128l-672 -40zM1428 2612h1540 q0 700 -160 978t-544 278q-168 0 -338 -40t-318 -116q-64 -232 -114 -528t-66 -572z" />
<glyph unicode="&#xe9;" horiz-adv-x="4312" d="M256 1656v332q0 1152 576 1796t1600 644q912 0 1304 -434t392 -1422v-520h-2712v-264q0 -640 310 -978t938 -338q272 0 632 80t620 180v-464q-292 -148 -752 -252t-936 -104q-948 0 -1460 448t-512 1296zM1428 2612h1540q0 700 -160 978t-544 278q-168 0 -338 -40 t-318 -116q-64 -232 -114 -528t-66 -572zM1948 5100v128l732 1452l1088 -40v-264l-1200 -1316z" />
<glyph unicode="&#xea;" horiz-adv-x="4312" d="M256 1656v332q0 1152 576 1796t1600 644q912 0 1304 -434t392 -1422v-520h-2712v-264q0 -640 310 -978t938 -338q272 0 632 80t620 180v-464q-292 -148 -752 -252t-936 -104q-948 0 -1460 448t-512 1296zM1056 5100v128l892 1492l972 -40l892 -1452v-128l-700 -40 l-752 876l-724 -876zM1428 2612h1540q0 700 -160 978t-544 278q-168 0 -338 -40t-318 -116q-64 -232 -114 -528t-66 -572z" />
<glyph unicode="&#xeb;" horiz-adv-x="4312" d="M256 1656v332q0 1152 576 1796t1600 644q912 0 1304 -434t392 -1422v-520h-2712v-264q0 -640 310 -978t938 -338q272 0 632 80t620 180v-464q-292 -148 -752 -252t-936 -104q-948 0 -1460 448t-512 1296zM912 5556q0 124 34 234t92 192t136 130t162 48q124 0 234 -34 t190 -94t126 -138t46 -166q0 -120 -34 -228t-90 -192t-134 -132t-162 -48q-128 0 -236 34t-190 94t-128 138t-46 162zM1428 2612h1540q0 700 -160 978t-544 278q-168 0 -338 -40t-318 -116q-64 -232 -114 -528t-66 -572zM2832 5556q0 124 34 234t90 192t134 130t162 48 q124 0 234 -34t192 -94t128 -138t46 -166q0 -120 -34 -228t-92 -192t-136 -132t-166 -48q-128 0 -236 34t-186 94t-124 138t-46 162z" />
<glyph unicode="&#xec;" horiz-adv-x="2784" d="M-132 6376v264l1140 40l812 -1452v-128l-672 -40zM272 472l572 136v3124l-572 136l80 472l1652 88v-3820l572 -136l-80 -472h-2144z" />
<glyph unicode="&#xed;" horiz-adv-x="2784" d="M272 472l572 136v3124l-572 136l80 472l1652 88v-3820l572 -136l-80 -472h-2144zM840 5100v128l732 1452l1088 -40v-264l-1200 -1316z" />
<glyph unicode="&#xee;" horiz-adv-x="2784" d="M-48 5100v128l892 1492l972 -40l892 -1452v-128l-700 -40l-752 876l-724 -876zM272 472l572 136v3124l-572 136l80 472l1652 88v-3820l572 -136l-80 -472h-2144z" />
<glyph unicode="&#xef;" horiz-adv-x="2784" d="M-192 5556q0 124 34 234t92 192t136 130t162 48q124 0 234 -34t190 -94t126 -138t46 -166q0 -120 -34 -228t-90 -192t-134 -132t-162 -48q-128 0 -236 34t-190 94t-128 138t-46 162zM272 472l572 136v3124l-572 136l80 472l1652 88v-3820l572 -136l-80 -472h-2144z M1728 5556q0 124 34 234t90 192t134 130t162 48q124 0 234 -34t192 -94t128 -138t46 -166q0 -120 -34 -228t-92 -192t-136 -132t-166 -48q-128 0 -236 34t-186 94t-124 138t-46 162z" />
<glyph unicode="&#xf0;" d="M248 1676v372q0 580 156 1024t434 746t658 456t824 154q180 0 362 -44t322 -124q-80 200 -220 412t-332 424l-980 -468l-228 480l804 380q-372 316 -812 552l636 208q424 -184 808 -460l968 460l228 -476l-740 -352q216 -200 406 -430t346 -486t270 -534t178 -574 q16 -68 30 -166t26 -202t18 -210t6 -194v-376q0 -492 -132 -918t-398 -740t-664 -496t-930 -182q-516 0 -898 124t-638 356t-382 556t-126 728zM1408 1812q0 -356 88 -610t230 -416t322 -238t364 -76q124 0 240 24t208 56q104 36 196 80q56 152 100 356q36 176 68 430 t32 594v476q0 408 -92 676t-236 424t-324 218t-352 62q-132 0 -250 -24t-206 -56q-104 -36 -188 -80q-56 -164 -100 -380q-40 -184 -70 -448t-30 -592v-476z" />
<glyph unicode="&#xf1;" horiz-adv-x="5568" d="M272 472l572 136v3124l-572 136l80 472l1340 88l232 -632q376 348 736 490t760 142q680 0 1036 -348t356 -1016v-2456l572 -136l-80 -472h-2144l-80 472l572 136v2396q0 460 -146 662t-446 202q-212 0 -486 -148t-570 -448v-2664l572 -136l-80 -472h-2144zM1196 5028v200 q0 508 246 762t674 254q228 0 462 -82t446 -182t394 -182t302 -82q136 0 214 118t78 362l548 40v-288q0 -476 -224 -746t-648 -270q-204 0 -446 82t-474 182t-432 182t-316 82q-144 0 -226 -76t-82 -316z" />
<glyph unicode="&#xf2;" d="M248 1676v372q0 1116 580 1748t1540 632q952 0 1500 -460t548 -1344v-376q0 -1068 -572 -1702t-1580 -634q-964 0 -1490 464t-526 1300zM1096 6376v264l1140 40l812 -1452v-128l-672 -40zM1408 1812q0 -640 284 -990t696 -350q200 0 374 44t294 116q88 228 144 590 t56 790v476q0 672 -278 1026t-706 354q-192 0 -364 -44t-300 -116q-92 -280 -146 -652t-54 -768v-476z" />
<glyph unicode="&#xf3;" d="M248 1676v372q0 1116 580 1748t1540 632q952 0 1500 -460t548 -1344v-376q0 -1068 -572 -1702t-1580 -634q-964 0 -1490 464t-526 1300zM1408 1812q0 -640 284 -990t696 -350q200 0 374 44t294 116q88 228 144 590t56 790v476q0 672 -278 1026t-706 354q-192 0 -364 -44 t-300 -116q-92 -280 -146 -652t-54 -768v-476zM2072 5100v128l732 1452l1088 -40v-264l-1200 -1316z" />
<glyph unicode="&#xf4;" d="M248 1676v372q0 1116 580 1748t1540 632q952 0 1500 -460t548 -1344v-376q0 -1068 -572 -1702t-1580 -634q-964 0 -1490 464t-526 1300zM1180 5100v128l892 1492l972 -40l892 -1452v-128l-700 -40l-752 876l-724 -876zM1408 1812q0 -640 284 -990t696 -350q200 0 374 44 t294 116q88 228 144 590t56 790v476q0 672 -278 1026t-706 354q-192 0 -364 -44t-300 -116q-92 -280 -146 -652t-54 -768v-476z" />
<glyph unicode="&#xf5;" d="M248 1676v372q0 1116 580 1748t1540 632q952 0 1500 -460t548 -1344v-376q0 -1068 -572 -1702t-1580 -634q-964 0 -1490 464t-526 1300zM844 5028v200q0 508 246 762t674 254q228 0 462 -82t446 -182t394 -182t302 -82q136 0 214 118t78 362l548 40v-288 q0 -476 -224 -746t-648 -270q-204 0 -446 82t-474 182t-432 182t-316 82q-144 0 -226 -76t-82 -316zM1408 1812q0 -640 284 -990t696 -350q200 0 374 44t294 116q88 228 144 590t56 790v476q0 672 -278 1026t-706 354q-192 0 -364 -44t-300 -116q-92 -280 -146 -652 t-54 -768v-476z" />
<glyph unicode="&#xf6;" d="M248 1676v372q0 1116 580 1748t1540 632q952 0 1500 -460t548 -1344v-376q0 -1068 -572 -1702t-1580 -634q-964 0 -1490 464t-526 1300zM1036 5556q0 124 34 234t92 192t136 130t162 48q124 0 234 -34t190 -94t126 -138t46 -166q0 -120 -34 -228t-90 -192t-134 -132 t-162 -48q-128 0 -236 34t-190 94t-128 138t-46 162zM1408 1812q0 -640 284 -990t696 -350q200 0 374 44t294 116q88 228 144 590t56 790v476q0 672 -278 1026t-706 354q-192 0 -364 -44t-300 -116q-92 -280 -146 -652t-54 -768v-476zM2956 5556q0 124 34 234t90 192 t134 130t162 48q124 0 234 -34t192 -94t128 -138t46 -166q0 -120 -34 -228t-92 -192t-136 -132t-166 -48q-128 0 -236 34t-186 94t-124 138t-46 162z" />
<glyph unicode="&#xf7;" horiz-adv-x="4852" d="M640 2000v748h3572v-748h-3572zM1940 704q0 132 30 254t82 212t124 144t152 54q140 0 260 -32t210 -86t140 -128t50 -154q0 -128 -30 -246t-84 -208t-126 -144t-156 -54q-136 0 -256 30t-208 82t-138 124t-50 152zM1940 3764q0 132 32 254t84 212t122 144t150 54 q140 0 260 -32t210 -86t140 -126t50 -156q0 -128 -32 -246t-86 -208t-126 -144t-152 -54q-136 0 -256 30t-208 84t-138 124t-50 150z" />
<glyph unicode="&#xf8;" d="M248 1676v372q0 580 158 1024t440 746t670 456t852 154q96 0 188 -4t184 -16l260 836h660v-80l-284 -908q240 -92 432 -240t326 -350t208 -462t74 -580v-376q0 -492 -132 -918t-400 -740t-672 -496t-948 -182q-128 0 -248 12l-256 -828h-660v80l268 864 q-564 188 -842 610t-278 1026zM1408 1812q0 -312 58 -546t162 -406l948 3032q-156 56 -304 56t-268 -24t-208 -56q-104 -36 -188 -80q-56 -172 -100 -400q-40 -196 -70 -472t-30 -628v-476zM2172 420q100 -28 216 -28q144 0 266 24t214 56q104 36 188 80q56 156 100 376 q36 188 68 456t32 628v476q0 284 -44 500t-116 380z" />
<glyph unicode="&#xf9;" horiz-adv-x="5264" d="M32 3868l80 472l1652 88v-2936q0 -528 152 -774t484 -246q216 0 462 160t470 436v2664l-692 136l80 472l1772 88v-3820l572 -136l-80 -472l-1340 -88l-232 632q-308 -316 -670 -474t-778 -158q-680 0 -1020 380t-340 1124v2316zM1064 6376v264l1140 40l812 -1452v-128 l-672 -40z" />
<glyph unicode="&#xfa;" horiz-adv-x="5264" d="M32 3868l80 472l1652 88v-2936q0 -528 152 -774t484 -246q216 0 462 160t470 436v2664l-692 136l80 472l1772 88v-3820l572 -136l-80 -472l-1340 -88l-232 632q-308 -316 -670 -474t-778 -158q-680 0 -1020 380t-340 1124v2316zM2040 5100v128l732 1452l1088 -40v-264 l-1200 -1316z" />
<glyph unicode="&#xfb;" horiz-adv-x="5264" d="M32 3868l80 472l1652 88v-2936q0 -528 152 -774t484 -246q216 0 462 160t470 436v2664l-692 136l80 472l1772 88v-3820l572 -136l-80 -472l-1340 -88l-232 632q-308 -316 -670 -474t-778 -158q-680 0 -1020 380t-340 1124v2316zM1148 5100v128l892 1492l972 -40 l892 -1452v-128l-700 -40l-752 876l-724 -876z" />
<glyph unicode="&#xfc;" horiz-adv-x="5264" d="M32 3868l80 472l1652 88v-2936q0 -528 152 -774t484 -246q216 0 462 160t470 436v2664l-692 136l80 472l1772 88v-3820l572 -136l-80 -472l-1340 -88l-232 632q-308 -316 -670 -474t-778 -158q-680 0 -1020 380t-340 1124v2316zM1004 5556q0 124 34 234t92 192t136 130 t162 48q124 0 234 -34t190 -94t126 -138t46 -166q0 -120 -34 -228t-90 -192t-134 -132t-162 -48q-128 0 -236 34t-190 94t-128 138t-46 162zM2924 5556q0 124 34 234t90 192t134 130t162 48q124 0 234 -34t192 -94t128 -138t46 -166q0 -120 -34 -228t-92 -192t-136 -132 t-166 -48q-128 0 -236 34t-186 94t-124 138t-46 162z" />
<glyph unicode="&#xfd;" horiz-adv-x="4416" d="M-80 3868l80 472h1800l80 -472l-492 -76l972 -2904h64l960 2904l-488 76l80 472h1456l80 -472l-368 -76l-1332 -3808q-344 -1000 -704 -1406t-912 -406q-284 0 -572 72t-528 196l164 684q300 -132 646 -228t574 -96q88 52 198 192t186 320l-1576 4480zM2044 5100v128 l732 1452l1088 -40v-264l-1200 -1316z" />
<glyph unicode="&#xfe;" horiz-adv-x="4824" d="M-64 -1264l652 136v6680l-652 136l80 472l1732 88v-2380l56 -24q72 80 186 182t274 192t358 150t438 60q364 0 642 -98t468 -310t286 -546t96 -810v-376q0 -536 -142 -974t-412 -750t-658 -482t-880 -170q-180 0 -360 16t-352 44v-1100l652 -136l-80 -476h-2304z M1748 580q140 -40 352 -74t440 -34q132 0 254 26t218 58q108 36 208 84q44 184 84 408q32 192 60 458t28 586v476q0 384 -48 634t-140 398t-222 208t-290 60q-180 0 -348 -90t-298 -198t-210 -202t-88 -106v-2692z" />
<glyph unicode="&#xff;" horiz-adv-x="4416" d="M-80 3868l80 472h1800l80 -472l-492 -76l972 -2904h64l960 2904l-488 76l80 472h1456l80 -472l-368 -76l-1332 -3808q-344 -1000 -704 -1406t-912 -406q-284 0 -572 72t-528 196l164 684q300 -132 646 -228t574 -96q88 52 198 192t186 320l-1576 4480zM1008 5556 q0 124 34 234t92 192t136 130t162 48q124 0 234 -34t190 -94t126 -138t46 -166q0 -120 -34 -228t-90 -192t-134 -132t-162 -48q-128 0 -236 34t-190 94t-128 138t-46 162zM2928 5556q0 124 34 234t90 192t134 130t162 48q124 0 234 -34t192 -94t128 -138t46 -166 q0 -120 -34 -228t-92 -192t-136 -132t-166 -48q-128 0 -236 34t-186 94t-124 138t-46 162z" />
<glyph unicode="&#x152;" horiz-adv-x="7652" d="M344 2100v316q0 752 156 1328t472 966t798 590t1138 200q248 0 466 -22t422 -66h3456l96 -1280l-492 -88l-332 772h-1528v-1688h1148l136 528l476 -80v-1496l-476 -80l-136 532h-1148v-1936h1644l332 772l496 -92l-96 -1276h-3576q-216 -44 -454 -66t-514 -22 q-2484 0 -2484 2188zM1544 2280q0 -460 114 -794t308 -552t448 -322t534 -104q276 0 496 42t352 82v4112q-392 160 -1008 160q-220 0 -404 -42t-320 -94q-160 -60 -284 -136q-68 -248 -120 -536q-44 -252 -80 -580t-36 -704v-532z" />
<glyph unicode="&#x153;" horiz-adv-x="7320" d="M256 1676v372q0 1116 580 1748t1540 632q952 0 1500 -460q40 -36 76 -72q560 532 1488 532q912 0 1304 -434t392 -1422v-520h-2712v-264q0 -640 310 -978t938 -338q272 0 632 80t620 180v-464q-292 -148 -752 -252t-936 -104q-948 0 -1460 448l-56 52 q-552 -500 -1448 -500q-964 0 -1490 464t-526 1300zM1416 1812q0 -640 284 -990t696 -350q200 0 374 44t294 116q88 228 144 590t56 790v32v444q0 672 -278 1026t-706 354q-192 0 -364 -44t-300 -116q-92 -280 -146 -652t-54 -768v-476zM4436 2612h1540q0 700 -160 978 t-544 278q-168 0 -338 -40t-318 -116q-64 -232 -114 -528t-66 -572z" />
<glyph unicode="&#x178;" horiz-adv-x="4688" d="M-216 4936l80 476h2080l80 -476l-568 -108l1108 -1776l1056 1776l-540 108l80 476h1688l80 -476l-452 -124l-1468 -2464v-1740l568 -136l-80 -472h-2180l-80 472l572 136v1736l-1556 2468zM964 6308q0 124 34 234t92 192t136 130t162 48q124 0 234 -34t190 -92t126 -138 t46 -168q0 -120 -34 -228t-90 -192t-134 -132t-162 -48q-128 0 -236 34t-190 94t-128 138t-46 162zM3132 6308q0 124 34 234t90 192t134 130t162 48q124 0 234 -34t192 -92t128 -138t46 -168q0 -120 -34 -228t-92 -192t-136 -132t-166 -48q-128 0 -236 34t-186 94t-124 138 t-46 162z" />
<glyph unicode="&#x2c6;" horiz-adv-x="4356" d="M800 5100v128l892 1492l972 -40l892 -1452v-128l-700 -40l-752 876l-724 -876z" />
<glyph unicode="&#x2dc;" horiz-adv-x="4564" d="M600 5028v200q0 508 246 762t674 254q228 0 462 -82t446 -182t394 -182t302 -82q136 0 214 118t78 362l548 40v-288q0 -476 -224 -746t-648 -270q-204 0 -446 82t-474 182t-432 182t-316 82q-144 0 -226 -76t-82 -316z" />
<glyph unicode="&#x2000;" horiz-adv-x="3598" />
<glyph unicode="&#x2001;" horiz-adv-x="7196" />
<glyph unicode="&#x2002;" horiz-adv-x="3598" />
<glyph unicode="&#x2003;" horiz-adv-x="7196" />
<glyph unicode="&#x2004;" horiz-adv-x="2398" />
<glyph unicode="&#x2005;" horiz-adv-x="1799" />
<glyph unicode="&#x2006;" horiz-adv-x="1199" />
<glyph unicode="&#x2007;" horiz-adv-x="1199" />
<glyph unicode="&#x2008;" horiz-adv-x="899" />
<glyph unicode="&#x2009;" horiz-adv-x="1439" />
<glyph unicode="&#x200a;" horiz-adv-x="399" />
<glyph unicode="&#x2010;" horiz-adv-x="4212" d="M640 1960v828h2932v-828h-2932z" />
<glyph unicode="&#x2011;" horiz-adv-x="4212" d="M640 1960v828h2932v-828h-2932z" />
<glyph unicode="&#x2012;" horiz-adv-x="4212" d="M640 1960v828h2932v-828h-2932z" />
<glyph unicode="&#x2013;" horiz-adv-x="4484" d="M160 1956l80 704h4084l-80 -704h-4084z" />
<glyph unicode="&#x2014;" horiz-adv-x="8460" d="M160 1956l80 704h8060l-80 -704h-8060z" />
<glyph unicode="&#x2018;" horiz-adv-x="2384" d="M560 4304q0 240 36 466t146 458t312 482t534 538l328 -384q-204 -172 -344 -322t-224 -284t-120 -248t-36 -214q0 -96 74 -146t190 -82q236 -60 382 -182t146 -274q0 -168 -40 -318t-106 -264t-154 -180t-188 -66q-92 0 -192 14t-196 44t-182 78t-150 120q-40 44 -80 106 t-70 152t-48 214t-18 292z" />
<glyph unicode="&#x2019;" horiz-adv-x="2384" d="M400 5420q0 168 40 318t106 264t154 180t188 66q92 0 192 -14t196 -44t182 -78t150 -120q40 -44 80 -106t70 -152t48 -214t18 -292q0 -240 -36 -466t-146 -458t-312 -482t-534 -538l-328 384q204 172 344 322t224 284t120 248t36 214q0 96 -74 146t-190 82 q-236 60 -382 182t-146 274z" />
<glyph unicode="&#x201a;" horiz-adv-x="2384" d="M400 392q0 168 40 318t106 264t154 180t188 66q92 0 192 -14t196 -44t182 -78t150 -120q40 -44 80 -106t70 -152t48 -214t18 -292q0 -240 -36 -466t-146 -458t-312 -482t-534 -538l-328 384q204 172 344 322t224 284t120 248t36 214q0 96 -74 146t-190 82 q-236 60 -382 182t-146 274z" />
<glyph unicode="&#x201c;" horiz-adv-x="4048" d="M560 4304q0 240 36 466t146 458t312 482t534 538l328 -384q-204 -172 -344 -322t-224 -284t-120 -248t-36 -214q0 -96 74 -146t190 -82q236 -60 382 -182t146 -274q0 -168 -40 -318t-106 -264t-154 -180t-188 -66q-92 0 -192 14t-196 44t-182 78t-150 120q-40 44 -80 106 t-70 152t-48 214t-18 292zM2224 4304q0 240 36 466t146 458t312 482t534 538l328 -384q-204 -172 -344 -322t-224 -284t-120 -248t-36 -214q0 -96 74 -146t190 -82q236 -60 382 -182t146 -274q0 -168 -40 -318t-106 -264t-154 -180t-188 -66q-92 0 -192 14t-196 44t-182 78 t-150 120q-40 44 -80 106t-70 152t-48 214t-18 292z" />
<glyph unicode="&#x201d;" horiz-adv-x="4048" d="M400 5420q0 168 40 318t106 264t154 180t188 66q92 0 192 -14t196 -44t182 -78t150 -120q40 -44 80 -106t70 -152t48 -214t18 -292q0 -240 -36 -466t-146 -458t-312 -482t-534 -538l-328 384q204 172 344 322t224 284t120 248t36 214q0 96 -74 146t-190 82 q-236 60 -382 182t-146 274zM2064 5420q0 168 40 318t106 264t154 180t188 66q92 0 192 -14t196 -44t182 -78t150 -120q40 -44 80 -106t70 -152t48 -214t18 -292q0 -240 -36 -466t-146 -458t-312 -482t-534 -538l-328 384q204 172 344 322t224 284t120 248t36 214 q0 96 -74 146t-190 82q-236 60 -382 182t-146 274z" />
<glyph unicode="&#x201e;" horiz-adv-x="4048" d="M400 392q0 168 40 318t106 264t154 180t188 66q92 0 192 -14t196 -44t182 -78t150 -120q40 -44 80 -106t70 -152t48 -214t18 -292q0 -240 -36 -466t-146 -458t-312 -482t-534 -538l-328 384q204 172 344 322t224 284t120 248t36 214q0 96 -74 146t-190 82 q-236 60 -382 182t-146 274zM2064 392q0 168 40 318t106 264t154 180t188 66q92 0 192 -14t196 -44t182 -78t150 -120q40 -44 80 -106t70 -152t48 -214t18 -292q0 -240 -36 -466t-146 -458t-312 -482t-534 -538l-328 384q204 172 344 322t224 284t120 248t36 214 q0 96 -74 146t-190 82q-236 60 -382 182t-146 274z" />
<glyph unicode="&#x2022;" horiz-adv-x="3028" d="M480 2308q0 260 60 498t166 418t246 286t300 106q276 0 512 -62t410 -166t274 -248t100 -304q0 -260 -60 -494t-166 -412t-246 -284t-300 -106q-272 0 -510 60t-412 166t-274 246t-100 296z" />
<glyph unicode="&#x2026;" horiz-adv-x="7676" d="M452 396q0 164 38 314t104 264t154 180t188 66q172 0 322 -38t260 -106t174 -158t64 -190q0 -164 -38 -310t-104 -260t-156 -180t-190 -66q-172 0 -320 38t-258 104t-174 154t-64 188zM3052 396q0 164 38 314t104 264t154 180t188 66q172 0 322 -38t260 -106t174 -158 t64 -190q0 -164 -38 -310t-104 -260t-156 -180t-190 -66q-172 0 -320 38t-258 104t-174 154t-64 188zM5652 396q0 164 38 314t104 264t154 180t188 66q172 0 322 -38t260 -106t174 -158t64 -190q0 -164 -38 -310t-104 -260t-156 -180t-190 -66q-172 0 -320 38t-258 104 t-174 154t-64 188z" />
<glyph unicode="&#x202f;" horiz-adv-x="1439" />
<glyph unicode="&#x2039;" horiz-adv-x="3000" d="M200 2144v240l1580 1684h780v-88l-1200 -1676v-80l1200 -1676v-88h-780z" />
<glyph unicode="&#x203a;" horiz-adv-x="3000" d="M440 460v88l1200 1676v80l-1200 1676v88h780l1580 -1684v-240l-1580 -1684h-780z" />
<glyph unicode="&#x205f;" horiz-adv-x="1799" />
<glyph unicode="&#x20ac;" horiz-adv-x="5084" d="M120 1892l112 480h420v44q0 224 12 436h-544l112 480h492q184 1068 830 1618t1758 550q352 0 632 -50t484 -110q236 -72 416 -160v-1308h-640l-192 948q-84 24 -200 40q-104 16 -254 30t-354 14q-244 0 -448 -50t-352 -106q-176 -72 -316 -156q-44 -152 -84 -344 q-32 -168 -70 -398t-58 -518h2196l-112 -480h-2108v-120v-360h1996l-112 -480h-1868q40 -380 174 -642t332 -428t448 -240t522 -74q312 0 594 64t498 144q248 92 464 208v-504q-228 -144 -516 -256q-248 -96 -590 -174t-762 -78q-456 0 -874 96t-742 324t-528 608t-232 952 h-536z" />
<glyph unicode="&#x2122;" horiz-adv-x="7368" d="M440 4696l52 716h2312l48 -716l-288 -44l-164 384h-408v-2004l304 -68l-40 -260h-1220l-40 260l308 68v2004h-412l-164 -384zM2980 2964l304 68v2052l-304 68l40 260h1156l724 -1908l696 1908h1212l40 -260l-304 -68v-2052l304 -68l-40 -260h-1216l-40 260l304 68v1872 l-820 -2200h-464l-860 2208v-1880l284 -68l-20 -260h-956z" />
<glyph unicode="&#x25fc;" horiz-adv-x="4340" d="M0 0v4340h4340v-4340h-4340z" />
<glyph unicode="&#xfb01;" horiz-adv-x="5584" d="M208 3868l80 472h532v432q0 736 392 1106t1144 370q204 0 426 -42t382 -106l-172 -604q-176 64 -430 114t-462 50q-52 -140 -86 -352t-34 -472v-496h776l80 -472l-856 -136v-3124l772 -136l-80 -472h-2344l-80 472l572 136v3124zM3188 472l572 136v3124l-572 136l80 472 l1652 88v-3820l572 -136l-80 -472h-2144zM3660 5580q0 284 150 498t350 214q292 0 500 -148t208 -360q0 -284 -152 -494t-348 -210q-288 0 -498 148t-210 352z" />
<glyph unicode="&#xfb02;" horiz-adv-x="5504" d="M208 3868l80 472h532v432q0 736 392 1106t1144 370q204 0 426 -42t382 -106l-172 -604q-176 64 -430 114t-462 50q-52 -140 -86 -352t-34 -472v-496h776l80 -472l-856 -136v-3124l772 -136l-80 -472h-2344l-80 472l572 136v3124zM3100 472l572 136v4944l-572 136l80 472 l1652 88v-5640l572 -136l-80 -472h-2144z" />
</font>
</defs>
</svg>
